<svg width="758" height="564" viewBox="0 0 758 564" fill="none" xmlns="http://www.w3.org/2000/svg">
<path d="M514.42 2.07947C427.008 48.6387 327.552 41.6651 242.316 2.07947C207.095 7.26888 105.613 50.752 90.6541 69.8576C76.3793 97.0825 42.6236 168.38 21.4075 264.314C-14.8727 389.674 -1.24306 564.298 70.3799 561.529C146.94 561.529 194.07 454.341 194.07 426.148C254.943 397.492 457.516 382.07 563.745 426.463C585.109 534.254 670.496 583.804 715.801 551.336C755.23 528.263 765.037 374.857 746.202 310.388C731.262 235.239 704.331 141.125 666.5 69.8397C633.47 45.8551 549.794 7.63185 514.42 2.07947Z" fill="#171717" stroke="black" stroke-width="4"/>
<path d="M484.305 240.688C513.711 240.688 537.55 264.528 537.55 293.934C537.55 323.341 513.711 347.179 484.305 347.179C454.898 347.179 431.059 323.341 431.059 293.934C431.059 264.527 454.898 240.688 484.305 240.688Z" stroke="#202020" stroke-width="2"/>
<path d="M594.174 80.4398C610.607 80.4398 623.957 93.6291 624.221 109.999C636.179 116.268 645.965 126.115 652.158 138.119C668.614 138.284 681.904 151.674 681.904 168.169C681.904 184.665 668.614 198.054 652.158 198.218C645.899 210.351 635.968 220.281 623.835 226.539C623.64 242.969 610.262 256.228 593.786 256.228C577.311 256.228 563.934 242.969 563.738 226.54C551.599 220.279 541.666 210.342 535.408 198.201C519.291 197.654 506.393 184.42 506.393 168.169C506.393 151.919 519.291 138.683 535.408 138.136C541.734 125.863 551.816 115.843 564.135 109.594C564.61 93.4121 577.877 80.4399 594.174 80.4398Z" stroke="#646464"/>
<circle cx="382.051" cy="159.348" r="63.1826" fill="#44FF00" stroke="white"/>
<g filter="url(#filter0_d_19_207)">
<path d="M341.082 152.538L349.423 159.348L341.082 166.157H344.869L351.317 160.894L357.764 166.157H361.552L353.21 159.348L361.552 152.538H357.764L351.317 157.802L344.869 152.538H341.082Z" fill="#ABABAB"/>
<path d="M402.55 152.538L410.891 159.348L402.55 166.157H406.337L412.785 160.894L419.232 166.157H423.02L414.678 159.348L423.02 152.538H419.232L412.785 157.802L406.337 152.538H402.55Z" fill="#ABABAB"/>
<path d="M365.091 152.538C363.584 154.039 362.836 156.795 362.836 158.227H360.56V160.469H362.836C362.836 161.901 363.584 164.657 365.091 166.158H378.482C379.989 164.657 380.736 161.901 380.736 160.469L379.857 159.943V158.753L380.736 158.227C380.736 156.795 379.989 154.039 378.482 152.538H365.091ZM366.245 154.781H377.328C377.844 155.822 378.282 156.977 378.471 158.227H365.102C365.291 156.977 365.729 155.822 366.245 154.781ZM365.102 160.469H378.471C378.282 161.718 377.844 162.874 377.328 163.915H366.245C365.729 162.874 365.291 161.718 365.102 160.469Z" fill="#ABABAB"/>
<path d="M385.544 152.538C384.372 154.195 383.217 156.409 383.217 159.348C383.217 162.286 384.372 164.501 385.544 166.157H399.115C400.287 164.501 401.442 162.286 401.442 159.348C401.442 156.409 400.287 154.195 399.115 152.538H385.544ZM386.968 154.781H397.691C398.498 155.616 399.175 157.872 399.175 159.348C399.175 160.823 398.498 163.08 397.691 163.915H386.968C386.161 163.08 385.484 160.823 385.484 159.348C385.484 157.872 386.161 155.616 386.968 154.781Z" fill="#ABABAB"/>
</g>
<g filter="url(#filter1_i_19_207)">
<circle cx="382.051" cy="159.348" r="63.6826" fill="#838383" fill-opacity="0.01"/>
<circle cx="382.051" cy="159.348" r="63.6826" fill="url(#paint0_radial_19_207)" fill-opacity="0.2"/>
</g>
<circle cx="382.051" cy="159.348" r="63.1826" stroke="white"/>
<defs>
<filter id="filter0_d_19_207" x="339.282" y="150.738" width="85.5381" height="17.2192" filterUnits="userSpaceOnUse" color-interpolation-filters="sRGB">
<feFlood flood-opacity="0" result="BackgroundImageFix"/>
<feColorMatrix in="SourceAlpha" type="matrix" values="0 0 0 0 0 0 0 0 0 0 0 0 0 0 0 0 0 0 127 0" result="hardAlpha"/>
<feOffset/>
<feGaussianBlur stdDeviation="0.9"/>
<feComposite in2="hardAlpha" operator="out"/>
<feColorMatrix type="matrix" values="0 0 0 0 0 0 0 0 0 0 0 0 0 0 0 0 0 0 0.25 0"/>
<feBlend mode="normal" in2="BackgroundImageFix" result="effect1_dropShadow_19_207"/>
<feBlend mode="normal" in="SourceGraphic" in2="effect1_dropShadow_19_207" result="shape"/>
</filter>
<filter id="filter1_i_19_207" x="318.368" y="95.6653" width="127.365" height="127.365" filterUnits="userSpaceOnUse" color-interpolation-filters="sRGB">
<feFlood flood-opacity="0" result="BackgroundImageFix"/>
<feBlend mode="normal" in="SourceGraphic" in2="BackgroundImageFix" result="shape"/>
<feColorMatrix in="SourceAlpha" type="matrix" values="0 0 0 0 0 0 0 0 0 0 0 0 0 0 0 0 0 0 127 0" result="hardAlpha"/>
<feMorphology radius="45" operator="dilate" in="SourceAlpha" result="effect1_innerShadow_19_207"/>
<feOffset dx="77" dy="-72"/>
<feGaussianBlur stdDeviation="1.05"/>
<feComposite in2="hardAlpha" operator="arithmetic" k2="-1" k3="1"/>
<feColorMatrix type="matrix" values="0 0 0 0 1 0 0 0 0 1 0 0 0 0 1 0 0 0 0.34 0"/>
<feBlend mode="normal" in2="shape" result="effect1_innerShadow_19_207"/>
</filter>
<radialGradient id="paint0_radial_19_207" cx="0" cy="0" r="1" gradientUnits="userSpaceOnUse" gradientTransform="translate(382.051 159.348) rotate(-40.1631) scale(63.6826)">
<stop stop-color="white" stop-opacity="0"/>
<stop offset="1" stop-color="white"/>
</radialGradient>
</defs>
</svg>
