<svg width="758" height="564" viewBox="0 0 758 564" fill="none" xmlns="http://www.w3.org/2000/svg">
<path d="M514.42 2.07947C427.008 48.6387 327.552 41.6651 242.316 2.07947C207.095 7.26888 105.613 50.752 90.6541 69.8576C76.3793 97.0825 42.6236 168.38 21.4075 264.314C-14.8727 389.674 -1.24306 564.298 70.3799 561.529C146.94 561.529 194.07 454.341 194.07 426.148C254.943 397.492 457.516 382.07 563.745 426.463C585.109 534.254 670.496 583.804 715.801 551.336C755.23 528.263 765.037 374.857 746.202 310.388C731.262 235.239 704.331 141.125 666.5 69.8397C633.47 45.8551 549.794 7.63185 514.42 2.07947Z" fill="#171717" stroke="black" stroke-width="4"/>
<path d="M484.305 240.688C513.711 240.688 537.55 264.528 537.55 293.934C537.55 323.341 513.711 347.179 484.305 347.179C454.898 347.179 431.059 323.341 431.059 293.934C431.059 264.527 454.898 240.688 484.305 240.688Z" stroke="#202020" stroke-width="2"/>
<path d="M166.176 114.924C195.582 114.924 219.421 138.763 219.421 168.17C219.421 197.576 195.582 221.415 166.176 221.415C136.769 221.415 112.93 197.576 112.93 168.17C112.93 138.763 136.769 114.924 166.176 114.924Z" stroke="#202020" stroke-width="2"/>
<circle cx="21.75" cy="21.75" r="22.25" transform="matrix(-1 0 0 1 158.799 272.528)" fill="#1A1A1A" stroke="#262626"/>
<path d="M154.032 326.415L150.426 321.233L148.405 322.449L147.923 321.755L152.785 318.831L153.267 319.524L151.238 320.745L154.844 325.927L154.032 326.415Z" fill="#363636"/>
<path d="M154.032 326.415L150.426 321.233L148.405 322.449L147.923 321.755L152.785 318.831L153.267 319.524L151.238 320.745L154.844 325.927L154.032 326.415Z" fill="#363636"/>
<path d="M154.032 326.415L150.426 321.233L148.405 322.449L147.923 321.755L152.785 318.831L153.267 319.524L151.238 320.745L154.844 325.927L154.032 326.415Z" fill="#363636"/>
<path d="M142.092 330.787L139.968 323.951L143.033 323.128C143.649 322.963 144.137 322.899 144.496 322.937C144.855 322.972 145.178 323.119 145.466 323.379C145.755 323.638 145.957 323.956 146.074 324.332C146.225 324.817 146.193 325.268 145.979 325.686C145.765 326.104 145.34 326.447 144.705 326.716C144.983 326.766 145.202 326.83 145.362 326.908C145.705 327.078 146.052 327.314 146.404 327.613L148.185 329.151L147.034 329.46L145.677 328.283C145.283 327.945 144.965 327.69 144.724 327.519C144.484 327.347 144.281 327.237 144.116 327.187C143.953 327.136 143.796 327.113 143.644 327.117C143.534 327.123 143.36 327.158 143.125 327.221L142.064 327.506L143.007 330.541L142.092 330.787ZM141.82 326.722L143.787 326.194C144.205 326.082 144.519 325.952 144.728 325.805C144.937 325.655 145.074 325.47 145.138 325.25C145.202 325.028 145.2 324.806 145.131 324.585C145.031 324.262 144.829 324.028 144.525 323.884C144.224 323.739 143.818 323.736 143.306 323.873L141.117 324.461L141.82 326.722Z" fill="#363636"/>
<path d="M142.092 330.787L139.968 323.951L143.033 323.128C143.649 322.963 144.137 322.899 144.496 322.937C144.855 322.972 145.178 323.119 145.466 323.379C145.755 323.638 145.957 323.956 146.074 324.332C146.225 324.817 146.193 325.268 145.979 325.686C145.765 326.104 145.34 326.447 144.705 326.716C144.983 326.766 145.202 326.83 145.362 326.908C145.705 327.078 146.052 327.314 146.404 327.613L148.185 329.151L147.034 329.46L145.677 328.283C145.283 327.945 144.965 327.69 144.724 327.519C144.484 327.347 144.281 327.237 144.116 327.187C143.953 327.136 143.796 327.113 143.644 327.117C143.534 327.123 143.36 327.158 143.125 327.221L142.064 327.506L143.007 330.541L142.092 330.787ZM141.82 326.722L143.787 326.194C144.205 326.082 144.519 325.952 144.728 325.805C144.937 325.655 145.074 325.47 145.138 325.25C145.202 325.028 145.2 324.806 145.131 324.585C145.031 324.262 144.829 324.028 144.525 323.884C144.224 323.739 143.818 323.736 143.306 323.873L141.117 324.461L141.82 326.722Z" fill="#363636"/>
<path d="M142.092 330.787L139.968 323.951L143.033 323.128C143.649 322.963 144.137 322.899 144.496 322.937C144.855 322.972 145.178 323.119 145.466 323.379C145.755 323.638 145.957 323.956 146.074 324.332C146.225 324.817 146.193 325.268 145.979 325.686C145.765 326.104 145.34 326.447 144.705 326.716C144.983 326.766 145.202 326.83 145.362 326.908C145.705 327.078 146.052 327.314 146.404 327.613L148.185 329.151L147.034 329.46L145.677 328.283C145.283 327.945 144.965 327.69 144.724 327.519C144.484 327.347 144.281 327.237 144.116 327.187C143.953 327.136 143.796 327.113 143.644 327.117C143.534 327.123 143.36 327.158 143.125 327.221L142.064 327.506L143.007 330.541L142.092 330.787ZM141.82 326.722L143.787 326.194C144.205 326.082 144.519 325.952 144.728 325.805C144.937 325.655 145.074 325.47 145.138 325.25C145.202 325.028 145.2 324.806 145.131 324.585C145.031 324.262 144.829 324.028 144.525 323.884C144.224 323.739 143.818 323.736 143.306 323.873L141.117 324.461L141.82 326.722Z" fill="#363636"/>
<path d="M131.689 330.66L134.528 323.533L135.548 323.544L138.387 330.733L137.308 330.722L136.501 328.545L133.508 328.512L132.694 330.671L131.689 330.66ZM133.791 327.744L136.218 327.77L135.496 325.78C135.275 325.175 135.112 324.678 135.006 324.29C134.91 324.748 134.775 325.202 134.604 325.653L133.791 327.744Z" fill="#363636"/>
<path d="M131.689 330.66L134.528 323.533L135.548 323.544L138.387 330.733L137.308 330.722L136.501 328.545L133.508 328.512L132.694 330.671L131.689 330.66ZM133.791 327.744L136.218 327.77L135.496 325.78C135.275 325.175 135.112 324.678 135.006 324.29C134.91 324.748 134.775 325.202 134.604 325.653L133.791 327.744Z" fill="#363636"/>
<path d="M131.689 330.66L134.528 323.533L135.548 323.544L138.387 330.733L137.308 330.722L136.501 328.545L133.508 328.512L132.694 330.671L131.689 330.66ZM133.791 327.744L136.218 327.77L135.496 325.78C135.275 325.175 135.112 324.678 135.006 324.29C134.91 324.748 134.775 325.202 134.604 325.653L133.791 327.744Z" fill="#363636"/>
<path d="M126.304 329.395L128.253 323.39L125.982 322.753L126.243 321.95L131.706 323.482L131.445 324.285L129.165 323.646L127.216 329.651L126.304 329.395Z" fill="#363636"/>
<path d="M126.304 329.395L128.253 323.39L125.982 322.753L126.243 321.95L131.706 323.482L131.445 324.285L129.165 323.646L127.216 329.651L126.304 329.395Z" fill="#363636"/>
<path d="M126.304 329.395L128.253 323.39L125.982 322.753L126.243 321.95L131.706 323.482L131.445 324.285L129.165 323.646L127.216 329.651L126.304 329.395Z" fill="#363636"/>
<path d="M117.959 323.719L118.769 324.116C118.601 324.431 118.516 324.723 118.516 324.992C118.519 325.26 118.62 325.536 118.817 325.821C119.016 326.104 119.29 326.35 119.638 326.56C119.948 326.746 120.252 326.866 120.551 326.921C120.849 326.975 121.108 326.961 121.329 326.877C121.554 326.793 121.73 326.66 121.856 326.478C121.984 326.294 122.04 326.1 122.023 325.896C122.008 325.69 121.905 325.463 121.714 325.215C121.592 325.055 121.294 324.741 120.819 324.274C120.347 323.804 120.038 323.444 119.892 323.193C119.701 322.87 119.609 322.557 119.614 322.253C119.624 321.948 119.723 321.661 119.911 321.391C120.118 321.095 120.398 320.871 120.752 320.72C121.108 320.567 121.502 320.525 121.932 320.594C122.363 320.663 122.784 320.822 123.197 321.071C123.652 321.344 124.003 321.656 124.25 322.005C124.502 322.354 124.627 322.721 124.624 323.106C124.621 323.491 124.507 323.86 124.281 324.213L123.464 323.801C123.68 323.404 123.733 323.038 123.623 322.702C123.515 322.368 123.225 322.06 122.754 321.776C122.263 321.481 121.844 321.352 121.497 321.39C121.155 321.427 120.899 321.566 120.73 321.81C120.583 322.021 120.542 322.242 120.606 322.474C120.667 322.704 120.977 323.09 121.535 323.63C122.097 324.169 122.464 324.566 122.635 324.82C122.883 325.193 123.007 325.552 123.008 325.897C123.011 326.24 122.902 326.569 122.683 326.884C122.465 327.197 122.167 327.436 121.786 327.602C121.408 327.764 120.989 327.818 120.53 327.761C120.075 327.704 119.629 327.543 119.191 327.28C118.636 326.946 118.224 326.588 117.955 326.207C117.689 325.827 117.557 325.418 117.557 324.979C117.563 324.538 117.697 324.119 117.959 323.719Z" fill="#363636"/>
<path d="M117.959 323.719L118.769 324.116C118.601 324.431 118.516 324.723 118.516 324.992C118.519 325.26 118.62 325.536 118.817 325.821C119.016 326.104 119.29 326.35 119.638 326.56C119.948 326.746 120.252 326.866 120.551 326.921C120.849 326.975 121.108 326.961 121.329 326.877C121.554 326.793 121.73 326.66 121.856 326.478C121.984 326.294 122.04 326.1 122.023 325.896C122.008 325.69 121.905 325.463 121.714 325.215C121.592 325.055 121.294 324.741 120.819 324.274C120.347 323.804 120.038 323.444 119.892 323.193C119.701 322.87 119.609 322.557 119.614 322.253C119.624 321.948 119.723 321.661 119.911 321.391C120.118 321.095 120.398 320.871 120.752 320.72C121.108 320.567 121.502 320.525 121.932 320.594C122.363 320.663 122.784 320.822 123.197 321.071C123.652 321.344 124.003 321.656 124.25 322.005C124.502 322.354 124.627 322.721 124.624 323.106C124.621 323.491 124.507 323.86 124.281 324.213L123.464 323.801C123.68 323.404 123.733 323.038 123.623 322.702C123.515 322.368 123.225 322.06 122.754 321.776C122.263 321.481 121.844 321.352 121.497 321.39C121.155 321.427 120.899 321.566 120.73 321.81C120.583 322.021 120.542 322.242 120.606 322.474C120.667 322.704 120.977 323.09 121.535 323.63C122.097 324.169 122.464 324.566 122.635 324.82C122.883 325.193 123.007 325.552 123.008 325.897C123.011 326.24 122.902 326.569 122.683 326.884C122.465 327.197 122.167 327.436 121.786 327.602C121.408 327.764 120.989 327.818 120.53 327.761C120.075 327.704 119.629 327.543 119.191 327.28C118.636 326.946 118.224 326.588 117.955 326.207C117.689 325.827 117.557 325.418 117.557 324.979C117.563 324.538 117.697 324.119 117.959 323.719Z" fill="#363636"/>
<path d="M117.959 323.719L118.769 324.116C118.601 324.431 118.516 324.723 118.516 324.992C118.519 325.26 118.62 325.536 118.817 325.821C119.016 326.104 119.29 326.35 119.638 326.56C119.948 326.746 120.252 326.866 120.551 326.921C120.849 326.975 121.108 326.961 121.329 326.877C121.554 326.793 121.73 326.66 121.856 326.478C121.984 326.294 122.04 326.1 122.023 325.896C122.008 325.69 121.905 325.463 121.714 325.215C121.592 325.055 121.294 324.741 120.819 324.274C120.347 323.804 120.038 323.444 119.892 323.193C119.701 322.87 119.609 322.557 119.614 322.253C119.624 321.948 119.723 321.661 119.911 321.391C120.118 321.095 120.398 320.871 120.752 320.72C121.108 320.567 121.502 320.525 121.932 320.594C122.363 320.663 122.784 320.822 123.197 321.071C123.652 321.344 124.003 321.656 124.25 322.005C124.502 322.354 124.627 322.721 124.624 323.106C124.621 323.491 124.507 323.86 124.281 324.213L123.464 323.801C123.68 323.404 123.733 323.038 123.623 322.702C123.515 322.368 123.225 322.06 122.754 321.776C122.263 321.481 121.844 321.352 121.497 321.39C121.155 321.427 120.899 321.566 120.73 321.81C120.583 322.021 120.542 322.242 120.606 322.474C120.667 322.704 120.977 323.09 121.535 323.63C122.097 324.169 122.464 324.566 122.635 324.82C122.883 325.193 123.007 325.552 123.008 325.897C123.011 326.24 122.902 326.569 122.683 326.884C122.465 327.197 122.167 327.436 121.786 327.602C121.408 327.764 120.989 327.818 120.53 327.761C120.075 327.704 119.629 327.543 119.191 327.28C118.636 326.946 118.224 326.588 117.955 326.207C117.689 325.827 117.557 325.418 117.557 324.979C117.563 324.538 117.697 324.119 117.959 323.719Z" fill="#363636"/>
<circle cx="21.75" cy="21.75" r="21.25" transform="matrix(-1 0 0 1 117.9 228.084)" fill="#1A1A1A" stroke="#262626"/>
<path d="M105.927 280.006L102.221 273.881L103.057 273.435L104.894 276.472L106.193 271.762L107.326 271.157L106.178 275.052L111.148 277.219L110.045 277.808L105.921 275.908L105.478 277.438L106.762 279.56L105.927 280.006Z" fill="#363636"/>
<path d="M105.927 280.006L102.221 273.881L103.057 273.435L104.894 276.472L106.193 271.762L107.326 271.157L106.178 275.052L111.148 277.219L110.045 277.808L105.921 275.908L105.478 277.438L106.762 279.56L105.927 280.006Z" fill="#363636"/>
<path d="M105.927 280.006L102.221 273.881L103.057 273.435L104.894 276.472L106.193 271.762L107.326 271.157L106.178 275.052L111.148 277.219L110.045 277.808L105.921 275.908L105.478 277.438L106.762 279.56L105.927 280.006Z" fill="#363636"/>
<path d="M100.632 278.366L101.601 278.439C101.522 279.242 101.259 279.891 100.811 280.386C100.365 280.877 99.7755 281.186 99.0412 281.315C98.2813 281.447 97.6389 281.401 97.1141 281.176C96.592 280.946 96.1611 280.559 95.8213 280.014C95.4848 279.468 95.2651 278.857 95.1623 278.181C95.0501 277.445 95.0919 276.778 95.2876 276.182C95.4861 275.583 95.8219 275.096 96.2951 274.723C96.7709 274.346 97.3199 274.103 97.942 273.994C98.6475 273.871 99.2681 273.947 99.804 274.224C100.34 274.5 100.752 274.948 101.041 275.568L100.155 275.946C99.9131 275.46 99.6187 275.126 99.272 274.946C98.9252 274.765 98.5161 274.716 98.0447 274.799C97.5028 274.893 97.0689 275.103 96.743 275.427C96.4203 275.751 96.2188 276.147 96.1384 276.613C96.0575 277.077 96.0525 277.542 96.1235 278.009C96.2151 278.61 96.3818 279.121 96.6235 279.542C96.8679 279.958 97.1914 280.245 97.594 280.403C97.9965 280.56 98.4126 280.602 98.8423 280.527C99.365 280.435 99.7845 280.207 100.101 279.841C100.417 279.475 100.594 278.983 100.632 278.366Z" fill="#363636"/>
<path d="M100.632 278.366L101.601 278.439C101.522 279.242 101.259 279.891 100.811 280.386C100.365 280.877 99.7755 281.186 99.0412 281.315C98.2813 281.447 97.6389 281.401 97.1141 281.176C96.592 280.946 96.1611 280.559 95.8213 280.014C95.4848 279.468 95.2651 278.857 95.1623 278.181C95.0501 277.445 95.0919 276.778 95.2876 276.182C95.4861 275.583 95.8219 275.096 96.2951 274.723C96.7709 274.346 97.3199 274.103 97.942 273.994C98.6475 273.871 99.2681 273.947 99.804 274.224C100.34 274.5 100.752 274.948 101.041 275.568L100.155 275.946C99.9131 275.46 99.6187 275.126 99.272 274.946C98.9252 274.765 98.5161 274.716 98.0447 274.799C97.5028 274.893 97.0689 275.103 96.743 275.427C96.4203 275.751 96.2188 276.147 96.1384 276.613C96.0575 277.077 96.0525 277.542 96.1235 278.009C96.2151 278.61 96.3818 279.121 96.6235 279.542C96.8679 279.958 97.1914 280.245 97.594 280.403C97.9965 280.56 98.4126 280.602 98.8423 280.527C99.365 280.435 99.7845 280.207 100.101 279.841C100.417 279.475 100.594 278.983 100.632 278.366Z" fill="#363636"/>
<path d="M100.632 278.366L101.601 278.439C101.522 279.242 101.259 279.891 100.811 280.386C100.365 280.877 99.7755 281.186 99.0412 281.315C98.2813 281.447 97.6389 281.401 97.1141 281.176C96.592 280.946 96.1611 280.559 95.8213 280.014C95.4848 279.468 95.2651 278.857 95.1623 278.181C95.0501 277.445 95.0919 276.778 95.2876 276.182C95.4861 275.583 95.8219 275.096 96.2951 274.723C96.7709 274.346 97.3199 274.103 97.942 273.994C98.6475 273.871 99.2681 273.947 99.804 274.224C100.34 274.5 100.752 274.948 101.041 275.568L100.155 275.946C99.9131 275.46 99.6187 275.126 99.272 274.946C98.9252 274.765 98.5161 274.716 98.0447 274.799C97.5028 274.893 97.0689 275.103 96.743 275.427C96.4203 275.751 96.2188 276.147 96.1384 276.613C96.0575 277.077 96.0525 277.542 96.1235 278.009C96.2151 278.61 96.3818 279.121 96.6235 279.542C96.8679 279.958 97.1914 280.245 97.594 280.403C97.9965 280.56 98.4126 280.602 98.8423 280.527C99.365 280.435 99.7845 280.207 100.101 279.841C100.417 279.475 100.594 278.983 100.632 278.366Z" fill="#363636"/>
<path d="M87.2797 280.53L90.9365 273.726L91.9512 273.835L93.9403 281.248L92.8674 281.132L92.317 278.893L89.3411 278.572L88.2798 280.637L87.2797 280.53ZM89.7125 277.836L92.1253 278.096L91.6383 276.05C91.4895 275.429 91.385 274.92 91.325 274.524C91.1751 274.969 90.9885 275.407 90.765 275.838L89.7125 277.836Z" fill="#363636"/>
<path d="M87.2797 280.53L90.9365 273.726L91.9512 273.835L93.9403 281.248L92.8674 281.132L92.317 278.893L89.3411 278.572L88.2798 280.637L87.2797 280.53ZM89.7125 277.836L92.1253 278.096L91.6383 276.05C91.4895 275.429 91.385 274.92 91.325 274.524C91.1751 274.969 90.9885 275.407 90.765 275.838L89.7125 277.836Z" fill="#363636"/>
<path d="M87.2797 280.53L90.9365 273.726L91.9512 273.835L93.9403 281.248L92.8674 281.132L92.317 278.893L89.3411 278.572L88.2798 280.637L87.2797 280.53ZM89.7125 277.836L92.1253 278.096L91.6383 276.05C91.4895 275.429 91.385 274.92 91.325 274.524C91.1751 274.969 90.9885 275.407 90.765 275.838L89.7125 277.836Z" fill="#363636"/>
<path d="M79.6264 277.016L82.5766 270.494L85.0795 271.467C85.5892 271.665 85.967 271.891 86.2131 272.143C86.4635 272.394 86.6128 272.691 86.6609 273.034C86.7135 273.376 86.672 273.696 86.5365 273.996C86.4104 274.274 86.2143 274.507 85.9482 274.693C85.6821 274.879 85.3586 274.987 84.9777 275.016C85.3289 275.289 85.5491 275.607 85.6384 275.969C85.7307 276.333 85.691 276.705 85.5193 277.084C85.3811 277.39 85.1856 277.649 84.9327 277.861C84.6842 278.071 84.4307 278.209 84.1721 278.276C83.9135 278.343 83.6203 278.356 83.2925 278.316C82.9691 278.274 82.595 278.17 82.1703 278.005L79.6264 277.016ZM82.2198 273.577L83.6624 274.139C84.0537 274.291 84.3458 274.375 84.5385 274.39C84.7925 274.412 85.0098 274.37 85.1905 274.262C85.3742 274.156 85.5177 273.988 85.621 273.76C85.7189 273.543 85.7517 273.333 85.7193 273.129C85.6883 272.921 85.5876 272.749 85.4172 272.613C85.2482 272.474 84.924 272.312 84.4446 272.125L83.1113 271.607L82.2198 273.577ZM80.8574 276.589L82.5184 277.235C82.8036 277.346 83.0085 277.414 83.1332 277.438C83.3526 277.481 83.5493 277.488 83.7234 277.458C83.8975 277.428 84.064 277.352 84.2231 277.229C84.3835 277.103 84.5107 276.936 84.6046 276.729C84.7146 276.485 84.7462 276.25 84.6993 276.022C84.6537 275.792 84.5332 275.597 84.3379 275.437C84.1469 275.276 83.8391 275.112 83.4143 274.947L81.8717 274.347L80.8574 276.589Z" fill="#363636"/>
<path d="M79.6264 277.016L82.5766 270.494L85.0795 271.467C85.5892 271.665 85.967 271.891 86.2131 272.143C86.4635 272.394 86.6128 272.691 86.6609 273.034C86.7135 273.376 86.672 273.696 86.5365 273.996C86.4104 274.274 86.2143 274.507 85.9482 274.693C85.6821 274.879 85.3586 274.987 84.9777 275.016C85.3289 275.289 85.5491 275.607 85.6384 275.969C85.7307 276.333 85.691 276.705 85.5193 277.084C85.3811 277.39 85.1856 277.649 84.9327 277.861C84.6842 278.071 84.4307 278.209 84.1721 278.276C83.9135 278.343 83.6203 278.356 83.2925 278.316C82.9691 278.274 82.595 278.17 82.1703 278.005L79.6264 277.016ZM82.2198 273.577L83.6624 274.139C84.0537 274.291 84.3458 274.375 84.5385 274.39C84.7925 274.412 85.0098 274.37 85.1905 274.262C85.3742 274.156 85.5177 273.988 85.621 273.76C85.7189 273.543 85.7517 273.333 85.7193 273.129C85.6883 272.921 85.5876 272.749 85.4172 272.613C85.2482 272.474 84.924 272.312 84.4446 272.125L83.1113 271.607L82.2198 273.577ZM80.8574 276.589L82.5184 277.235C82.8036 277.346 83.0085 277.414 83.1332 277.438C83.3526 277.481 83.5493 277.488 83.7234 277.458C83.8975 277.428 84.064 277.352 84.2231 277.229C84.3835 277.103 84.5107 276.936 84.6046 276.729C84.7146 276.485 84.7462 276.25 84.6993 276.022C84.6537 275.792 84.5332 275.597 84.3379 275.437C84.1469 275.276 83.8391 275.112 83.4143 274.947L81.8717 274.347L80.8574 276.589Z" fill="#363636"/>
<path d="M79.6264 277.016L82.5766 270.494L85.0795 271.467C85.5892 271.665 85.967 271.891 86.2131 272.143C86.4635 272.394 86.6128 272.691 86.6609 273.034C86.7135 273.376 86.672 273.696 86.5365 273.996C86.4104 274.274 86.2143 274.507 85.9482 274.693C85.6821 274.879 85.3586 274.987 84.9777 275.016C85.3289 275.289 85.5491 275.607 85.6384 275.969C85.7307 276.333 85.691 276.705 85.5193 277.084C85.3811 277.39 85.1856 277.649 84.9327 277.861C84.6842 278.071 84.4307 278.209 84.1721 278.276C83.9135 278.343 83.6203 278.356 83.2925 278.316C82.9691 278.274 82.595 278.17 82.1703 278.005L79.6264 277.016ZM82.2198 273.577L83.6624 274.139C84.0537 274.291 84.3458 274.375 84.5385 274.39C84.7925 274.412 85.0098 274.37 85.1905 274.262C85.3742 274.156 85.5177 273.988 85.621 273.76C85.7189 273.543 85.7517 273.333 85.7193 273.129C85.6883 272.921 85.5876 272.749 85.4172 272.613C85.2482 272.474 84.924 272.312 84.4446 272.125L83.1113 271.607L82.2198 273.577ZM80.8574 276.589L82.5184 277.235C82.8036 277.346 83.0085 277.414 83.1332 277.438C83.3526 277.481 83.5493 277.488 83.7234 277.458C83.8975 277.428 84.064 277.352 84.2231 277.229C84.3835 277.103 84.5107 276.936 84.6046 276.729C84.7146 276.485 84.7462 276.25 84.6993 276.022C84.6537 275.792 84.5332 275.597 84.3379 275.437C84.1469 275.276 83.8391 275.112 83.4143 274.947L81.8717 274.347L80.8574 276.589Z" fill="#363636"/>
<path d="M594.174 80.4398C610.607 80.4398 623.957 93.6291 624.221 109.999C636.179 116.268 645.965 126.115 652.158 138.119C668.614 138.284 681.904 151.674 681.904 168.169C681.904 184.665 668.614 198.054 652.158 198.218C645.899 210.351 635.968 220.281 623.835 226.539C623.64 242.969 610.262 256.228 593.786 256.228C577.311 256.228 563.934 242.969 563.738 226.54C551.599 220.279 541.666 210.342 535.408 198.201C519.291 197.654 506.393 184.42 506.393 168.169C506.393 151.919 519.291 138.683 535.408 138.136C541.734 125.863 551.816 115.843 564.135 109.594C564.61 93.4121 577.877 80.4399 594.174 80.4398Z" stroke="#646464"/>
<circle cx="382.051" cy="159.348" r="63.1826" fill="#44FF00" stroke="white"/>
<g filter="url(#filter0_d_19_208)">
<path d="M341.082 152.538L349.423 159.348L341.082 166.157H344.869L351.317 160.894L357.764 166.157H361.552L353.21 159.348L361.552 152.538H357.764L351.317 157.802L344.869 152.538H341.082Z" fill="#ABABAB"/>
<path d="M402.55 152.538L410.891 159.348L402.55 166.157H406.337L412.785 160.894L419.232 166.157H423.02L414.678 159.348L423.02 152.538H419.232L412.785 157.802L406.337 152.538H402.55Z" fill="#ABABAB"/>
<path d="M365.091 152.538C363.584 154.039 362.836 156.795 362.836 158.227H360.56V160.469H362.836C362.836 161.901 363.584 164.657 365.091 166.158H378.482C379.989 164.657 380.736 161.901 380.736 160.469L379.857 159.943V158.753L380.736 158.227C380.736 156.795 379.989 154.039 378.482 152.538H365.091ZM366.245 154.781H377.328C377.844 155.822 378.282 156.977 378.471 158.227H365.102C365.291 156.977 365.729 155.822 366.245 154.781ZM365.102 160.469H378.471C378.282 161.718 377.844 162.874 377.328 163.915H366.245C365.729 162.874 365.291 161.718 365.102 160.469Z" fill="#ABABAB"/>
<path d="M385.544 152.538C384.372 154.195 383.217 156.409 383.217 159.348C383.217 162.286 384.372 164.501 385.544 166.157H399.115C400.287 164.501 401.442 162.286 401.442 159.348C401.442 156.409 400.287 154.195 399.115 152.538H385.544ZM386.968 154.781H397.691C398.498 155.616 399.175 157.872 399.175 159.348C399.175 160.823 398.498 163.08 397.691 163.915H386.968C386.161 163.08 385.484 160.823 385.484 159.348C385.484 157.872 386.161 155.616 386.968 154.781Z" fill="#ABABAB"/>
</g>
<g filter="url(#filter1_i_19_208)">
<circle cx="382.051" cy="159.348" r="63.6826" fill="#838383" fill-opacity="0.01"/>
<circle cx="382.051" cy="159.348" r="63.6826" fill="url(#paint0_radial_19_208)" fill-opacity="0.2"/>
</g>
<circle cx="382.051" cy="159.348" r="63.1826" stroke="white"/>
<defs>
<filter id="filter0_d_19_208" x="339.282" y="150.738" width="85.5381" height="17.2192" filterUnits="userSpaceOnUse" color-interpolation-filters="sRGB">
<feFlood flood-opacity="0" result="BackgroundImageFix"/>
<feColorMatrix in="SourceAlpha" type="matrix" values="0 0 0 0 0 0 0 0 0 0 0 0 0 0 0 0 0 0 127 0" result="hardAlpha"/>
<feOffset/>
<feGaussianBlur stdDeviation="0.9"/>
<feComposite in2="hardAlpha" operator="out"/>
<feColorMatrix type="matrix" values="0 0 0 0 0 0 0 0 0 0 0 0 0 0 0 0 0 0 0.25 0"/>
<feBlend mode="normal" in2="BackgroundImageFix" result="effect1_dropShadow_19_208"/>
<feBlend mode="normal" in="SourceGraphic" in2="effect1_dropShadow_19_208" result="shape"/>
</filter>
<filter id="filter1_i_19_208" x="318.368" y="95.6653" width="127.365" height="127.365" filterUnits="userSpaceOnUse" color-interpolation-filters="sRGB">
<feFlood flood-opacity="0" result="BackgroundImageFix"/>
<feBlend mode="normal" in="SourceGraphic" in2="BackgroundImageFix" result="shape"/>
<feColorMatrix in="SourceAlpha" type="matrix" values="0 0 0 0 0 0 0 0 0 0 0 0 0 0 0 0 0 0 127 0" result="hardAlpha"/>
<feMorphology radius="45" operator="dilate" in="SourceAlpha" result="effect1_innerShadow_19_208"/>
<feOffset dx="77" dy="-72"/>
<feGaussianBlur stdDeviation="1.05"/>
<feComposite in2="hardAlpha" operator="arithmetic" k2="-1" k3="1"/>
<feColorMatrix type="matrix" values="0 0 0 0 1 0 0 0 0 1 0 0 0 0 1 0 0 0 0.34 0"/>
<feBlend mode="normal" in2="shape" result="effect1_innerShadow_19_208"/>
</filter>
<radialGradient id="paint0_radial_19_208" cx="0" cy="0" r="1" gradientUnits="userSpaceOnUse" gradientTransform="translate(382.051 159.348) rotate(-40.1631) scale(63.6826)">
<stop stop-color="white" stop-opacity="0"/>
<stop offset="1" stop-color="white"/>
</radialGradient>
</defs>
</svg>
