<svg width="758" height="564" viewBox="0 0 758 564" fill="none" xmlns="http://www.w3.org/2000/svg">
<path d="M514.42 2.07947C427.008 48.6387 327.552 41.6651 242.316 2.07947C207.095 7.26888 105.613 50.752 90.6541 69.8576C76.3793 97.0825 42.6236 168.38 21.4075 264.314C-14.8727 389.674 -1.24306 564.298 70.3799 561.529C146.94 561.529 194.07 454.341 194.07 426.148C254.943 397.492 457.516 382.07 563.745 426.463C585.109 534.254 670.496 583.804 715.801 551.336C755.23 528.263 765.037 374.857 746.202 310.388C731.262 235.239 704.331 141.125 666.5 69.8397C633.47 45.8551 549.794 7.63185 514.42 2.07947Z" fill="#213D23" stroke="#217426" stroke-width="4"/>
<mask id="mask0_19_207" style="mask-type:alpha" maskUnits="userSpaceOnUse" x="0" y="0" width="758" height="564">
<path d="M514.42 2.07947C427.008 48.6387 327.552 41.6651 242.316 2.07947C207.095 7.26888 105.613 50.752 90.6541 69.8576C76.3793 97.0825 42.6236 168.38 21.4075 264.314C-14.8727 389.674 -1.24306 564.298 70.3799 561.529C146.94 561.529 194.07 454.341 194.07 426.148C254.943 397.492 457.516 382.07 563.745 426.463C585.109 534.254 670.496 583.804 715.801 551.336C755.23 528.263 765.037 374.857 746.202 310.388C731.262 235.239 704.331 141.125 666.5 69.8397C633.47 45.8551 549.794 7.63185 514.42 2.07947Z" fill="#213D23" stroke="#217426" stroke-width="4"/>
</mask>
<g mask="url(#mask0_19_207)">
<path d="M172.239 44.0506V67.8914L151.591 79.8123L130.944 67.8914V44.0506L151.591 32.1287L172.239 44.0506Z" stroke="#217426"/>
<path d="M172.239 44.0506V67.8914L151.591 79.8123L130.944 67.8914V44.0506L151.591 32.1287L172.239 44.0506Z" stroke="#217426"/>
<path d="M151.704 80.0494V103.89L131.057 115.811L110.409 103.89V80.0494L131.057 68.1276L151.704 80.0494Z" stroke="#217426"/>
<path d="M193.28 80.0494V103.89L172.633 115.811L151.985 103.89V80.0494L172.633 68.1276L193.28 80.0494Z" stroke="#217426"/>
<path d="M172.239 115.795V139.636L151.591 151.557L130.944 139.636V115.795L151.591 103.873L172.239 115.795Z" stroke="#217426"/>
<path d="M213.815 115.795V139.636L193.167 151.557L172.52 139.636V115.795L193.167 103.873L213.815 115.795Z" stroke="#217426"/>
<path d="M193.28 151.794V175.634L172.633 187.555L151.985 175.634V151.794L172.633 139.872L193.28 151.794Z" stroke="#217426"/>
<path d="M234.856 151.794V175.634L214.209 187.555L193.561 175.634V151.794L214.209 139.872L234.856 151.794Z" stroke="#217426"/>
<path d="M213.815 187.539V211.38L193.167 223.301L172.52 211.38V187.539L193.167 175.617L213.815 187.539Z" stroke="#217426"/>
<path d="M109.621 80.0494V103.89L88.9736 115.811L68.3261 103.89V80.0494L88.9736 68.1276L109.621 80.0494Z" stroke="#217426"/>
<path d="M109.621 80.0494V103.89L88.9736 115.811L68.3261 103.89V80.0494L88.9736 68.1276L109.621 80.0494Z" stroke="#217426"/>
<path d="M89.0865 116.048V139.889L68.4391 151.81L47.7916 139.889V116.048L68.4391 104.126L89.0865 116.048Z" stroke="#217426"/>
<path d="M130.663 116.048V139.889L110.015 151.81L89.3677 139.889V116.048L110.015 104.126L130.663 116.048Z" stroke="#217426"/>
<path d="M109.621 151.794V175.634L88.9736 187.555L68.3261 175.634V151.794L88.9736 139.872L109.621 151.794Z" stroke="#217426"/>
<path d="M151.197 151.794V175.634L130.55 187.555L109.902 175.634V151.794L130.55 139.872L151.197 151.794Z" stroke="#217426"/>
<path d="M130.663 187.792V211.633L110.015 223.554L89.3677 211.633V187.792L110.015 175.871L130.663 187.792Z" stroke="#217426"/>
<path d="M172.239 187.792V211.633L151.591 223.554L130.944 211.633V187.792L151.591 175.871L172.239 187.792Z" stroke="#217426"/>
<path d="M151.197 223.538V247.379L130.55 259.3L109.902 247.379V223.538L130.55 211.616L151.197 223.538Z" stroke="#217426"/>
<path d="M234.349 8.30524V32.1461L213.702 44.067L193.054 32.1461V8.30524L213.702 -3.61664L234.349 8.30524Z" stroke="#217426"/>
<path d="M234.349 8.30524V32.1461L213.702 44.067L193.054 32.1461V8.30524L213.702 -3.61664L234.349 8.30524Z" stroke="#217426"/>
<path d="M213.815 44.3041V68.1449L193.167 80.0658L172.52 68.1449V44.3041L193.167 32.3822L213.815 44.3041Z" stroke="#217426"/>
<path d="M255.391 44.3041V68.1449L234.743 80.0658L214.096 68.1449V44.3041L234.743 32.3822L255.391 44.3041Z" stroke="#217426"/>
<path d="M234.349 80.0494V103.89L213.702 115.811L193.054 103.89V80.0494L213.702 68.1276L234.349 80.0494Z" stroke="#217426"/>
<path d="M275.926 80.0494V103.89L255.278 115.811L234.631 103.89V80.0494L255.278 68.1276L275.926 80.0494Z" stroke="#217426"/>
<path d="M255.391 116.048V139.889L234.743 151.81L214.096 139.889V116.048L234.743 104.126L255.391 116.048Z" stroke="#217426"/>
<path d="M296.967 116.048V139.889L276.32 151.81L255.672 139.889V116.048L276.32 104.126L296.967 116.048Z" stroke="#217426"/>
<path d="M275.926 151.794V175.634L255.278 187.555L234.631 175.634V151.794L255.278 139.872L275.926 151.794Z" stroke="#217426"/>
<path d="M255.137 187.539V211.38L234.49 223.301L213.843 211.38V187.539L234.49 175.618L255.137 187.539Z" stroke="#217426"/>
<path d="M255.137 187.539V211.38L234.49 223.301L213.843 211.38V187.539L234.49 175.618L255.137 187.539Z" stroke="#217426"/>
<path d="M234.603 223.538V247.379L213.955 259.3L193.308 247.379V223.538L213.955 211.616L234.603 223.538Z" stroke="#217426"/>
<path d="M276.179 223.538V247.379L255.532 259.3L234.884 247.379V223.538L255.532 211.616L276.179 223.538Z" stroke="#217426"/>
<path d="M255.137 259.284V283.124L234.49 295.045L213.843 283.124V259.284L234.49 247.362L255.137 259.284Z" stroke="#217426"/>
<path d="M296.714 259.284V283.124L276.066 295.045L255.419 283.124V259.284L276.066 247.362L296.714 259.284Z" stroke="#217426"/>
<path d="M276.179 295.282V319.123L255.532 331.044L234.884 319.123V295.282L255.532 283.361L276.179 295.282Z" stroke="#217426"/>
<path d="M317.755 295.282V319.123L297.108 331.044L276.46 319.123V295.282L297.108 283.361L317.755 295.282Z" stroke="#217426"/>
<path d="M296.714 331.028V354.869L276.066 366.79L255.419 354.869V331.028L276.066 319.106L296.714 331.028Z" stroke="#217426"/>
<path d="M192.52 223.538V247.379L171.872 259.3L151.225 247.379V223.538L171.872 211.616L192.52 223.538Z" stroke="#217426"/>
<path d="M192.52 223.538V247.379L171.872 259.3L151.225 247.379V223.538L171.872 211.616L192.52 223.538Z" stroke="#217426"/>
<path d="M171.985 259.537V283.378L151.338 295.299L130.69 283.378V259.537L151.338 247.615L171.985 259.537Z" stroke="#217426"/>
<path d="M213.561 259.537V283.378L192.914 295.299L172.266 283.378V259.537L192.914 247.615L213.561 259.537Z" stroke="#217426"/>
<path d="M192.52 295.282V319.123L171.872 331.044L151.225 319.123V295.282L171.872 283.361L192.52 295.282Z" stroke="#217426"/>
<path d="M234.096 295.282V319.123L213.448 331.044L192.801 319.123V295.282L213.448 283.361L234.096 295.282Z" stroke="#217426"/>
<path d="M213.561 331.281V355.122L192.914 367.043L172.266 355.122V331.281L192.914 319.359L213.561 331.281Z" stroke="#217426"/>
<path d="M255.137 331.281V355.122L234.49 367.043L213.843 355.122V331.281L234.49 319.359L255.137 331.281Z" stroke="#217426"/>
<path d="M234.096 367.027V390.867L213.448 402.788L192.801 390.867V367.027L213.448 355.105L234.096 367.027Z" stroke="#217426"/>
<path d="M317.248 151.794V175.635L296.601 187.556L275.953 175.635V151.794L296.601 139.872L317.248 151.794Z" stroke="#217426"/>
<path d="M317.248 151.794V175.635L296.601 187.556L275.953 175.635V151.794L296.601 139.872L317.248 151.794Z" stroke="#217426"/>
<path d="M296.714 187.793V211.634L276.066 223.555L255.419 211.634V187.793L276.066 175.871L296.714 187.793Z" stroke="#217426"/>
<path d="M338.29 187.793V211.634L317.642 223.555L296.995 211.634V187.793L317.642 175.871L338.29 187.793Z" stroke="#217426"/>
<path d="M317.248 223.538V247.379L296.601 259.3L275.953 247.379V223.538L296.601 211.616L317.248 223.538Z" stroke="#217426"/>
<path d="M358.824 223.538V247.379L338.177 259.3L317.529 247.379V223.538L338.177 211.616L358.824 223.538Z" stroke="#217426"/>
<path d="M338.29 259.537V283.378L317.642 295.299L296.995 283.378V259.537L317.642 247.615L338.29 259.537Z" stroke="#217426"/>
<path d="M379.866 259.537V283.378L359.218 295.299L338.571 283.378V259.537L359.218 247.615L379.866 259.537Z" stroke="#217426"/>
<path d="M358.824 295.282V319.123L338.177 331.044L317.529 319.123V295.282L338.177 283.361L358.824 295.282Z" stroke="#217426"/>
<path d="M68.552 295.282V319.123L47.9045 331.044L27.257 319.123V295.282L47.9045 283.361L68.552 295.282Z" stroke="#217426"/>
<path d="M68.552 295.282V319.123L47.9045 331.044L27.257 319.123V295.282L47.9045 283.361L68.552 295.282Z" stroke="#217426"/>
<path d="M48.0174 331.281V355.122L27.37 367.043L6.7225 355.122V331.281L27.37 319.359L48.0174 331.281Z" stroke="#217426"/>
<path d="M89.5935 331.281V355.122L68.9461 367.043L48.2986 355.122V331.281L68.9461 319.359L89.5935 331.281Z" stroke="#217426"/>
<path d="M68.552 367.027V390.867L47.9045 402.788L27.257 390.867V367.027L47.9045 355.105L68.552 367.027Z" stroke="#217426"/>
<path d="M110.128 367.027V390.867L89.4806 402.788L68.8332 390.867V367.027L89.4806 355.105L110.128 367.027Z" stroke="#217426"/>
<path d="M89.5935 403.026V426.866L68.9461 438.787L48.2986 426.866V403.026L68.9461 391.104L89.5935 403.026Z" stroke="#217426"/>
<path d="M131.17 403.026V426.866L110.522 438.787L89.8747 426.866V403.026L110.522 391.104L131.17 403.026Z" stroke="#217426"/>
<path d="M110.128 438.771V462.612L89.4806 474.533L68.8332 462.612V438.771L89.4806 426.849L110.128 438.771Z" stroke="#217426"/>
<path d="M5.9343 331.281V355.122L-14.7132 367.043L-35.3606 355.122V331.281L-14.7132 319.359L5.9343 331.281Z" stroke="#217426"/>
<path d="M5.9343 331.281V355.122L-14.7132 367.043L-35.3606 355.122V331.281L-14.7132 319.359L5.9343 331.281Z" stroke="#217426"/>
<path d="M26.9759 367.28V391.121L6.3284 403.042L-14.3191 391.121V367.28L6.3284 355.358L26.9759 367.28Z" stroke="#217426"/>
<path d="M5.9343 403.026V426.866L-14.7132 438.787L-35.3606 426.866V403.026L-14.7132 391.104L5.9343 403.026Z" stroke="#217426"/>
<path d="M47.5104 403.026V426.866L26.8629 438.787L6.21548 426.866V403.026L26.8629 391.104L47.5104 403.026Z" stroke="#217426"/>
<path d="M26.9759 439.024V462.865L6.3284 474.786L-14.3191 462.865V439.024L6.3284 427.102L26.9759 439.024Z" stroke="#217426"/>
<path d="M68.552 439.024V462.865L47.9045 474.786L27.257 462.865V439.024L47.9045 427.102L68.552 439.024Z" stroke="#217426"/>
<path d="M47.5104 474.77V498.611L26.8629 510.531L6.21548 498.611V474.77L26.8629 462.848L47.5104 474.77Z" stroke="#217426"/>
<path d="M130.663 259.537V283.378L110.015 295.299L89.3677 283.378V259.537L110.015 247.615L130.663 259.537Z" stroke="#217426"/>
<path d="M130.663 259.537V283.378L110.015 295.299L89.3677 283.378V259.537L110.015 247.615L130.663 259.537Z" stroke="#217426"/>
<path d="M110.128 295.536V319.377L89.4806 331.298L68.8332 319.377V295.536L89.4806 283.614L110.128 295.536Z" stroke="#217426"/>
<path d="M151.704 295.536V319.377L131.057 331.298L110.409 319.377V295.536L131.057 283.614L151.704 295.536Z" stroke="#217426"/>
<path d="M130.663 331.281V355.122L110.015 367.043L89.3677 355.122V331.281L110.015 319.359L130.663 331.281Z" stroke="#217426"/>
<path d="M172.239 331.281V355.122L151.591 367.043L130.944 355.122V331.281L151.591 319.359L172.239 331.281Z" stroke="#217426"/>
<path d="M151.704 367.28V391.121L131.057 403.042L110.409 391.121V367.28L131.057 355.358L151.704 367.28Z" stroke="#217426"/>
<path d="M193.28 367.28V391.121L172.633 403.042L151.985 391.121V367.28L172.633 355.358L193.28 367.28Z" stroke="#217426"/>
<path d="M172.239 403.026V426.866L151.591 438.787L130.944 426.866V403.026L151.591 391.104L172.239 403.026Z" stroke="#217426"/>
<path d="M26.4684 223.538V247.379L5.82089 259.3L-14.8266 247.379V223.538L5.82089 211.616L26.4684 223.538Z" stroke="#217426"/>
<path d="M5.93381 259.537V283.378L-14.7137 295.299L-35.3611 283.378V259.537L-14.7137 247.615L5.93381 259.537Z" stroke="#217426"/>
<path d="M47.5099 259.537V283.378L26.8625 295.299L6.215 283.378V259.537L26.8625 247.615L47.5099 259.537Z" stroke="#217426"/>
<path d="M26.4684 295.282V319.123L5.82089 331.044L-14.8266 319.123V295.282L5.82089 283.361L26.4684 295.282Z" stroke="#217426"/>
<path d="M68.0445 152.048V175.888L47.397 187.809L26.7495 175.888V152.048L47.397 140.126L68.0445 152.048Z" stroke="#217426"/>
<path d="M47.0029 187.793V211.634L26.3554 223.555L5.70798 211.634V187.793L26.3554 175.871L47.0029 187.793Z" stroke="#217426"/>
<path d="M88.579 187.793V211.634L67.9315 223.555L47.2841 211.634V187.793L67.9315 175.871L88.579 187.793Z" stroke="#217426"/>
<path d="M68.0445 223.792V247.633L47.397 259.553L26.7495 247.633V223.792L47.397 211.87L68.0445 223.792Z" stroke="#217426"/>
<path d="M109.621 223.792V247.633L88.9731 259.553L68.3257 247.633V223.792L88.9731 211.87L109.621 223.792Z" stroke="#217426"/>
<path d="M88.579 259.537V283.378L67.9315 295.299L47.2841 283.378V259.537L67.9315 247.615L88.579 259.537Z" stroke="#217426"/>
<path d="M151.451 438.771V462.612L130.803 474.533L110.156 462.612V438.771L130.803 426.849L151.451 438.771Z" stroke="#217426"/>
<path d="M151.451 438.771V462.612L130.803 474.533L110.156 462.612V438.771L130.803 426.849L151.451 438.771Z" stroke="#217426"/>
<path d="M130.916 474.77V498.611L110.269 510.531L89.6212 498.611V474.77L110.269 462.848L130.916 474.77Z" stroke="#217426"/>
<path d="M172.492 474.77V498.611L151.845 510.531L131.197 498.611V474.77L151.845 462.848L172.492 474.77Z" stroke="#217426"/>
<path d="M151.451 510.515V534.356L130.803 546.277L110.156 534.356V510.515L130.803 498.593L151.451 510.515Z" stroke="#217426"/>
<path d="M193.027 510.515V534.356L172.379 546.277L151.732 534.356V510.515L172.379 498.593L193.027 510.515Z" stroke="#217426"/>
<path d="M88.833 474.77V498.611L68.1856 510.531L47.5381 498.611V474.77L68.1856 462.848L88.833 474.77Z" stroke="#217426"/>
<path d="M88.833 474.77V498.611L68.1856 510.531L47.5381 498.611V474.77L68.1856 462.848L88.833 474.77Z" stroke="#217426"/>
<path d="M68.2985 510.769V534.609L47.651 546.53L27.0036 534.609V510.769L47.651 498.847L68.2985 510.769Z" stroke="#217426"/>
<path d="M109.875 510.769V534.609L89.2271 546.53L68.5796 534.609V510.769L89.2271 498.847L109.875 510.769Z" stroke="#217426"/>
<path d="M88.833 546.514V570.355L68.1856 582.276L47.5381 570.355V546.514L68.1856 534.592L88.833 546.514Z" stroke="#217426"/>
<path d="M130.409 546.514V570.355L109.762 582.276L89.1142 570.355V546.514L109.762 534.592L130.409 546.514Z" stroke="#217426"/>
<path d="M213.561 403.026V426.866L192.914 438.787L172.266 426.866V403.026L192.914 391.104L213.561 403.026Z" stroke="#217426"/>
<path d="M213.561 403.026V426.866L192.914 438.787L172.266 426.866V403.026L192.914 391.104L213.561 403.026Z" stroke="#217426"/>
<path d="M193.027 439.024V462.865L172.379 474.786L151.732 462.865V439.024L172.379 427.102L193.027 439.024Z" stroke="#217426"/>
<path d="M213.561 474.77V498.611L192.914 510.531L172.266 498.611V474.77L192.914 462.848L213.561 474.77Z" stroke="#217426"/>
<path d="M546.171 -27.4401V-3.5993L525.524 8.32159L504.876 -3.5993V-27.4401L525.524 -39.362L546.171 -27.4401Z" stroke="#217426"/>
<path d="M525.13 8.30524V32.1461L504.482 44.067L483.835 32.1461V8.30524L504.482 -3.61664L525.13 8.30524Z" stroke="#217426"/>
<path d="M608.535 8.30566V32.1465L587.888 44.0674L567.241 32.1465V8.30566L587.888 -3.61621L608.535 8.30566Z" stroke="#217426"/>
<path d="M629.07 44.051V67.8918L608.423 79.8127L587.775 67.8918V44.051L608.423 32.1292L629.07 44.051Z" stroke="#217426"/>
<path d="M670.646 44.051V67.8918L649.999 79.8127L629.351 67.8918V44.051L649.999 32.1292L670.646 44.051Z" stroke="#217426"/>
<path d="M650.111 80.0499V103.891L629.464 115.812L608.817 103.891V80.0499L629.464 68.128L650.111 80.0499Z" stroke="#217426"/>
<path d="M691.688 80.0499V103.891L671.04 115.812L650.393 103.891V80.0499L671.04 68.128L691.688 80.0499Z" stroke="#217426"/>
<path d="M670.646 115.795V139.636L649.999 151.557L629.351 139.636V115.795L649.999 103.873L670.646 115.795Z" stroke="#217426"/>
<path d="M566.452 8.30566V32.1465L545.805 44.0674L525.157 32.1465V8.30566L545.805 -3.61621L566.452 8.30566Z" stroke="#217426"/>
<path d="M566.452 8.30566V32.1465L545.805 44.0674L525.157 32.1465V8.30566L545.805 -3.61621L566.452 8.30566Z" stroke="#217426"/>
<path d="M545.918 44.3045V68.1453L525.27 80.0662L504.623 68.1453V44.3045L525.27 32.3826L545.918 44.3045Z" stroke="#217426"/>
<path d="M587.494 44.3045V68.1453L566.846 80.0662L546.199 68.1453V44.3045L566.846 32.3826L587.494 44.3045Z" stroke="#217426"/>
<path d="M566.452 80.0499V103.891L545.805 115.812L525.157 103.891V80.0499L545.805 68.128L566.452 80.0499Z" stroke="#217426"/>
<path d="M608.028 80.0499V103.891L587.381 115.812L566.733 103.891V80.0499L587.381 68.128L608.028 80.0499Z" stroke="#217426"/>
<path d="M587.494 116.049V139.89L566.846 151.81L546.199 139.89V116.049L566.846 104.127L587.494 116.049Z" stroke="#217426"/>
<path d="M629.07 116.049V139.89L608.423 151.81L587.775 139.89V116.049L608.423 104.127L629.07 116.049Z" stroke="#217426"/>
<path d="M608.028 151.794V175.635L587.381 187.556L566.733 175.635V151.794L587.381 139.872L608.028 151.794Z" stroke="#217426"/>
<path d="M442.484 80.0499V103.891L421.837 115.812L401.189 103.891V80.0499L421.837 68.128L442.484 80.0499Z" stroke="#217426"/>
<path d="M442.484 80.0499V103.891L421.837 115.812L401.189 103.891V80.0499L421.837 68.128L442.484 80.0499Z" stroke="#217426"/>
<path d="M421.95 116.049V139.89L401.302 151.81L380.655 139.89V116.049L401.302 104.127L421.95 116.049Z" stroke="#217426"/>
<path d="M463.526 116.049V139.89L442.879 151.81L422.231 139.89V116.049L442.879 104.127L463.526 116.049Z" stroke="#217426"/>
<path d="M442.484 151.794V175.635L421.837 187.556L401.189 175.635V151.794L421.837 139.872L442.484 151.794Z" stroke="#217426"/>
<path d="M484.061 151.794V175.635L463.413 187.556L442.766 175.635V151.794L463.413 139.872L484.061 151.794Z" stroke="#217426"/>
<path d="M463.526 187.793V211.634L442.879 223.555L422.231 211.634V187.793L442.879 175.871L463.526 187.793Z" stroke="#217426"/>
<path d="M505.102 187.793V211.634L484.455 223.555L463.807 211.634V187.793L484.455 175.871L505.102 187.793Z" stroke="#217426"/>
<path d="M484.061 223.538V247.379L463.413 259.3L442.766 247.379V223.538L463.413 211.616L484.061 223.538Z" stroke="#217426"/>
<path d="M379.867 116.049V139.89L359.219 151.81L338.572 139.89V116.049L359.219 104.127L379.867 116.049Z" stroke="#217426"/>
<path d="M379.867 116.049V139.89L359.219 151.81L338.572 139.89V116.049L359.219 104.127L379.867 116.049Z" stroke="#217426"/>
<path d="M359.332 152.048V175.888L338.685 187.809L318.037 175.888V152.048L338.685 140.126L359.332 152.048Z" stroke="#217426"/>
<path d="M400.908 152.048V175.888L380.261 187.809L359.613 175.888V152.048L380.261 140.126L400.908 152.048Z" stroke="#217426"/>
<path d="M379.867 187.793V211.634L359.219 223.555L338.572 211.634V187.793L359.219 175.871L379.867 187.793Z" stroke="#217426"/>
<path d="M421.443 187.793V211.634L400.795 223.555L380.148 211.634V187.793L400.795 175.871L421.443 187.793Z" stroke="#217426"/>
<path d="M400.908 223.792V247.633L380.261 259.553L359.613 247.633V223.792L380.261 211.87L400.908 223.792Z" stroke="#217426"/>
<path d="M442.484 223.792V247.633L421.837 259.553L401.189 247.633V223.792L421.837 211.87L442.484 223.792Z" stroke="#217426"/>
<path d="M421.443 259.537V283.378L400.795 295.299L380.148 283.378V259.537L400.795 247.615L421.443 259.537Z" stroke="#217426"/>
<path d="M504.595 44.3045V68.1453L483.948 80.0662L463.3 68.1453V44.3045L483.948 32.3826L504.595 44.3045Z" stroke="#217426"/>
<path d="M504.595 44.3045V68.1453L483.948 80.0662L463.3 68.1453V44.3045L483.948 32.3826L504.595 44.3045Z" stroke="#217426"/>
<path d="M484.061 80.3033V104.144L463.413 116.065L442.766 104.144V80.3033L463.413 68.3815L484.061 80.3033Z" stroke="#217426"/>
<path d="M525.637 80.3033V104.144L504.989 116.065L484.342 104.144V80.3033L504.989 68.3815L525.637 80.3033Z" stroke="#217426"/>
<path d="M504.595 116.049V139.89L483.948 151.81L463.3 139.89V116.049L483.948 104.127L504.595 116.049Z" stroke="#217426"/>
<path d="M546.171 116.049V139.89L525.524 151.81L504.876 139.89V116.049L525.524 104.127L546.171 116.049Z" stroke="#217426"/>
<path d="M525.637 152.048V175.888L504.989 187.809L484.342 175.888V152.048L504.989 140.126L525.637 152.048Z" stroke="#217426"/>
<path d="M567.213 152.048V175.888L546.565 187.809L525.918 175.888V152.048L546.565 140.126L567.213 152.048Z" stroke="#217426"/>
<path d="M546.171 187.793V211.634L525.524 223.555L504.876 211.634V187.793L525.524 175.871L546.171 187.793Z" stroke="#217426"/>
<path d="M358.825 8.30566V32.1465L338.177 44.0674L317.53 32.1465V8.30566L338.177 -3.61621L358.825 8.30566Z" stroke="#217426"/>
<path d="M400.401 8.30566V32.1465L379.753 44.0674L359.106 32.1465V8.30566L379.753 -3.61621L400.401 8.30566Z" stroke="#217426"/>
<path d="M379.866 44.3045V68.1453L359.219 80.0662L338.571 68.1453V44.3045L359.219 32.3826L379.866 44.3045Z" stroke="#217426"/>
<path d="M421.442 44.3045V68.1453L400.795 80.0662L380.147 68.1453V44.3045L400.795 32.3826L421.442 44.3045Z" stroke="#217426"/>
<path d="M400.401 80.0499V103.891L379.753 115.812L359.106 103.891V80.0499L379.753 68.128L400.401 80.0499Z" stroke="#217426"/>
<path d="M275.672 8.55914V32.4L255.025 44.3209L234.377 32.4V8.55914L255.025 -3.36273L275.672 8.55914Z" stroke="#217426"/>
<path d="M317.249 8.55914V32.4L296.601 44.3209L275.954 32.4V8.55914L296.601 -3.36273L317.249 8.55914Z" stroke="#217426"/>
<path d="M296.207 44.3045V68.1453L275.56 80.0662L254.912 68.1453V44.3045L275.56 32.3826L296.207 44.3045Z" stroke="#217426"/>
<path d="M337.783 44.3045V68.1453L317.136 80.0662L296.488 68.1453V44.3045L317.136 32.3826L337.783 44.3045Z" stroke="#217426"/>
<path d="M317.249 80.3033V104.144L296.601 116.065L275.954 104.144V80.3033L296.601 68.3815L317.249 80.3033Z" stroke="#217426"/>
<path d="M358.825 80.3033V104.144L338.177 116.065L317.53 104.144V80.3033L338.177 68.3815L358.825 80.3033Z" stroke="#217426"/>
<path d="M337.783 116.049V139.89L317.136 151.81L296.488 139.89V116.049L317.136 104.127L337.783 116.049Z" stroke="#217426"/>
<path d="M441.977 8.55914V32.4L421.329 44.3209L400.682 32.4V8.55914L421.329 -3.36273L441.977 8.55914Z" stroke="#217426"/>
<path d="M483.553 8.55914V32.4L462.906 44.3209L442.258 32.4V8.55914L462.906 -3.36273L483.553 8.55914Z" stroke="#217426"/>
<path d="M462.512 44.3045V68.1453L441.864 80.0662L421.217 68.1453V44.3045L441.864 32.3826L462.512 44.3045Z" stroke="#217426"/>
<path d="M525.383 223.538V247.379L504.736 259.3L484.088 247.379V223.538L504.736 211.616L525.383 223.538Z" stroke="#217426"/>
<path d="M525.383 223.538V247.379L504.736 259.3L484.088 247.379V223.538L504.736 211.616L525.383 223.538Z" stroke="#217426"/>
<path d="M504.849 259.537V283.378L484.201 295.299L463.554 283.378V259.537L484.201 247.615L504.849 259.537Z" stroke="#217426"/>
<path d="M546.425 259.537V283.378L525.777 295.299L505.13 283.378V259.537L525.777 247.615L546.425 259.537Z" stroke="#217426"/>
<path d="M525.383 295.283V319.123L504.736 331.044L484.088 319.123V295.283L504.736 283.361L525.383 295.283Z" stroke="#217426"/>
<path d="M566.959 295.283V319.123L546.312 331.044L525.664 319.123V295.283L546.312 283.361L566.959 295.283Z" stroke="#217426"/>
<path d="M546.425 331.281V355.122L525.777 367.043L505.13 355.122V331.281L525.777 319.359L546.425 331.281Z" stroke="#217426"/>
<path d="M588.001 331.281V355.122L567.353 367.043L546.706 355.122V331.281L567.353 319.359L588.001 331.281Z" stroke="#217426"/>
<path d="M566.959 367.027V390.867L546.312 402.788L525.664 390.867V367.027L546.312 355.105L566.959 367.027Z" stroke="#217426"/>
<path d="M462.765 259.537V283.378L442.118 295.299L421.47 283.378V259.537L442.118 247.615L462.765 259.537Z" stroke="#217426"/>
<path d="M462.765 259.537V283.378L442.118 295.299L421.47 283.378V259.537L442.118 247.615L462.765 259.537Z" stroke="#217426"/>
<path d="M442.231 295.536V319.377L421.583 331.298L400.936 319.377V295.536L421.583 283.614L442.231 295.536Z" stroke="#217426"/>
<path d="M483.807 295.536V319.377L463.16 331.298L442.512 319.377V295.536L463.16 283.614L483.807 295.536Z" stroke="#217426"/>
<path d="M462.765 331.281V355.122L442.118 367.043L421.47 355.122V331.281L442.118 319.359L462.765 331.281Z" stroke="#217426"/>
<path d="M504.342 331.281V355.122L483.694 367.043L463.047 355.122V331.281L483.694 319.359L504.342 331.281Z" stroke="#217426"/>
<path d="M483.807 367.28V391.121L463.16 403.042L442.512 391.121V367.28L463.16 355.358L483.807 367.28Z" stroke="#217426"/>
<path d="M525.383 367.28V391.121L504.736 403.042L484.088 391.121V367.28L504.736 355.358L525.383 367.28Z" stroke="#217426"/>
<path d="M504.342 403.026V426.866L483.694 438.787L463.047 426.866V403.026L483.694 391.104L504.342 403.026Z" stroke="#217426"/>
<path d="M587.494 187.793V211.634L566.846 223.555L546.199 211.634V187.793L566.846 175.871L587.494 187.793Z" stroke="#217426"/>
<path d="M587.494 187.793V211.634L566.846 223.555L546.199 211.634V187.793L566.846 175.871L587.494 187.793Z" stroke="#217426"/>
<path d="M566.959 223.792V247.633L546.312 259.553L525.664 247.633V223.792L546.312 211.87L566.959 223.792Z" stroke="#217426"/>
<path d="M608.535 223.792V247.633L587.888 259.553L567.24 247.633V223.792L587.888 211.87L608.535 223.792Z" stroke="#217426"/>
<path d="M587.494 259.537V283.378L566.846 295.299L546.199 283.378V259.537L566.846 247.615L587.494 259.537Z" stroke="#217426"/>
<path d="M629.07 259.537V283.378L608.422 295.299L587.775 283.378V259.537L608.422 247.615L629.07 259.537Z" stroke="#217426"/>
<path d="M608.535 295.536V319.377L587.888 331.298L567.24 319.377V295.536L587.888 283.614L608.535 295.536Z" stroke="#217426"/>
<path d="M650.111 295.536V319.377L629.464 331.298L608.817 319.377V295.536L629.464 283.614L650.111 295.536Z" stroke="#217426"/>
<path d="M629.07 331.281V355.122L608.422 367.043L587.775 355.122V331.281L608.422 319.359L629.07 331.281Z" stroke="#217426"/>
<path d="M526.144 223.284V247.125L505.496 259.046L484.849 247.125V223.284L505.496 211.362L526.144 223.284Z" stroke="#217426"/>
<path d="M526.144 223.284V247.125L505.496 259.046L484.849 247.125V223.284L505.496 211.362L526.144 223.284Z" stroke="#217426"/>
<path d="M505.609 259.283V283.124L484.962 295.045L464.314 283.124V259.283L484.962 247.361L505.609 259.283Z" stroke="#217426"/>
<path d="M547.185 259.283V283.124L526.538 295.045L505.89 283.124V259.283L526.538 247.361L547.185 259.283Z" stroke="#217426"/>
<path d="M526.144 295.029V318.869L505.496 330.79L484.849 318.869V295.029L505.496 283.107L526.144 295.029Z" stroke="#217426"/>
<path d="M567.72 295.029V318.869L547.072 330.79L526.425 318.869V295.029L547.072 283.107L567.72 295.029Z" stroke="#217426"/>
<path d="M547.185 331.027V354.868L526.538 366.789L505.89 354.868V331.027L526.538 319.106L547.185 331.027Z" stroke="#217426"/>
<path d="M588.761 331.027V354.868L568.114 366.789L547.466 354.868V331.027L568.114 319.106L588.761 331.027Z" stroke="#217426"/>
<path d="M567.72 366.773V390.614L547.072 402.534L526.425 390.614V366.773L547.072 354.851L567.72 366.773Z" stroke="#217426"/>
<path d="M463.526 259.283V283.124L442.879 295.045L422.231 283.124V259.283L442.879 247.361L463.526 259.283Z" stroke="#217426"/>
<path d="M463.526 259.283V283.124L442.879 295.045L422.231 283.124V259.283L442.879 247.361L463.526 259.283Z" stroke="#217426"/>
<path d="M442.991 295.282V319.123L422.344 331.044L401.696 319.123V295.282L422.344 283.36L442.991 295.282Z" stroke="#217426"/>
<path d="M484.568 295.282V319.123L463.92 331.044L443.273 319.123V295.282L463.92 283.36L484.568 295.282Z" stroke="#217426"/>
<path d="M463.526 331.027V354.868L442.879 366.789L422.231 354.868V331.027L442.879 319.106L463.526 331.027Z" stroke="#217426"/>
<path d="M505.102 331.027V354.868L484.455 366.789L463.807 354.868V331.027L484.455 319.106L505.102 331.027Z" stroke="#217426"/>
<path d="M484.568 367.026V390.867L463.92 402.788L443.273 390.867V367.026L463.92 355.104L484.568 367.026Z" stroke="#217426"/>
<path d="M526.144 367.026V390.867L505.496 402.788L484.849 390.867V367.026L505.496 355.104L526.144 367.026Z" stroke="#217426"/>
<path d="M505.102 402.772V426.612L484.455 438.533L463.807 426.612V402.772L484.455 390.85L505.102 402.772Z" stroke="#217426"/>
<path d="M588.254 187.539V211.38L567.607 223.301L546.959 211.38V187.539L567.607 175.617L588.254 187.539Z" stroke="#217426"/>
<path d="M588.254 187.539V211.38L567.607 223.301L546.959 211.38V187.539L567.607 175.617L588.254 187.539Z" stroke="#217426"/>
<path d="M567.72 223.538V247.379L547.072 259.3L526.425 247.379V223.538L547.072 211.616L567.72 223.538Z" stroke="#217426"/>
<path d="M609.296 223.538V247.379L588.648 259.3L568.001 247.379V223.538L588.648 211.616L609.296 223.538Z" stroke="#217426"/>
<path d="M588.254 259.283V283.124L567.607 295.045L546.959 283.124V259.283L567.607 247.361L588.254 259.283Z" stroke="#217426"/>
<path d="M629.83 259.283V283.124L609.183 295.045L588.536 283.124V259.283L609.183 247.361L629.83 259.283Z" stroke="#217426"/>
<path d="M609.296 295.282V319.123L588.648 331.044L568.001 319.123V295.282L588.648 283.36L609.296 295.282Z" stroke="#217426"/>
<path d="M650.872 295.282V319.123L630.225 331.044L609.577 319.123V295.282L630.225 283.36L650.872 295.282Z" stroke="#217426"/>
<path d="M629.83 331.027V354.868L609.183 366.789L588.536 354.868V331.027L609.183 319.106L629.83 331.027Z" stroke="#217426"/>
<path d="M609.042 366.773V390.614L588.395 402.535L567.747 390.614V366.773L588.395 354.851L609.042 366.773Z" stroke="#217426"/>
<path d="M609.042 366.773V390.614L588.395 402.535L567.747 390.614V366.773L588.395 354.851L609.042 366.773Z" stroke="#217426"/>
<path d="M588.508 402.772V426.613L567.86 438.534L547.213 426.613V402.772L567.86 390.85L588.508 402.772Z" stroke="#217426"/>
<path d="M630.084 402.772V426.613L609.436 438.534L588.789 426.613V402.772L609.436 390.85L630.084 402.772Z" stroke="#217426"/>
<path d="M609.042 438.517V462.358L588.395 474.279L567.747 462.358V438.517L588.395 426.596L609.042 438.517Z" stroke="#217426"/>
<path d="M650.618 438.517V462.358L629.971 474.279L609.324 462.358V438.517L629.971 426.596L650.618 438.517Z" stroke="#217426"/>
<path d="M630.084 474.516V498.357L609.436 510.278L588.789 498.357V474.516L609.436 462.594L630.084 474.516Z" stroke="#217426"/>
<path d="M671.66 474.516V498.357L651.013 510.278L630.365 498.357V474.516L651.013 462.594L671.66 474.516Z" stroke="#217426"/>
<path d="M650.618 510.262V534.102L629.971 546.023L609.324 534.102V510.262L629.971 498.34L650.618 510.262Z" stroke="#217426"/>
<path d="M692.195 510.008V533.848L671.547 545.769L650.9 533.848V510.008L671.547 498.086L692.195 510.008Z" stroke="#217426"/>
<path d="M733.61 510.008V533.848L712.962 545.769L692.315 533.848V510.008L712.962 498.086L733.61 510.008Z" stroke="#217426"/>
<path d="M671.66 545.753V569.594L651.013 581.515L630.365 569.594V545.753L651.013 533.831L671.66 545.753Z" stroke="#217426"/>
<path d="M712.729 545.753V569.594L692.082 581.515L671.434 569.594V545.753L692.082 533.831L712.729 545.753Z" stroke="#217426"/>
<path d="M546.425 402.772V426.613L525.777 438.534L505.13 426.613V402.772L525.777 390.85L546.425 402.772Z" stroke="#217426"/>
<path d="M546.425 402.772V426.613L525.777 438.534L505.13 426.613V402.772L525.777 390.85L546.425 402.772Z" stroke="#217426"/>
<path d="M588.001 474.516V498.357L567.353 510.278L546.706 498.357V474.516L567.353 462.594L588.001 474.516Z" stroke="#217426"/>
<path d="M567.466 510.515V534.356L546.819 546.277L526.171 534.356V510.515L546.819 498.593L567.466 510.515Z" stroke="#217426"/>
<path d="M609.042 510.515V534.356L588.395 546.277L567.747 534.356V510.515L588.395 498.593L609.042 510.515Z" stroke="#217426"/>
<path d="M588.001 546.26V570.101L567.353 582.022L546.706 570.101V546.26L567.353 534.339L588.001 546.26Z" stroke="#217426"/>
<path d="M671.153 331.028V354.869L650.506 366.79L629.858 354.869V331.028L650.506 319.106L671.153 331.028Z" stroke="#217426"/>
<path d="M671.153 331.028V354.869L650.506 366.79L629.858 354.869V331.028L650.506 319.106L671.153 331.028Z" stroke="#217426"/>
<path d="M650.618 367.027V390.867L629.971 402.788L609.324 390.867V367.027L629.971 355.105L650.618 367.027Z" stroke="#217426"/>
<path d="M692.195 367.027V390.867L671.547 402.788L650.9 390.867V367.027L671.547 355.105L692.195 367.027Z" stroke="#217426"/>
<path d="M671.153 402.772V426.613L650.506 438.534L629.858 426.613V402.772L650.506 390.85L671.153 402.772Z" stroke="#217426"/>
<path d="M712.729 402.772V426.613L692.082 438.534L671.434 426.613V402.772L692.082 390.85L712.729 402.772Z" stroke="#217426"/>
<path d="M692.195 438.771V462.612L671.547 474.533L650.9 462.612V438.771L671.547 426.849L692.195 438.771Z" stroke="#217426"/>
<path d="M733.771 438.771V462.612L713.123 474.533L692.476 462.612V438.771L713.123 426.849L733.771 438.771Z" stroke="#217426"/>
<path d="M712.729 474.516V498.357L692.082 510.278L671.434 498.357V474.516L692.082 462.594L712.729 474.516Z" stroke="#217426"/>
<path d="M338.797 331.028V354.869L318.15 366.79L297.502 354.869V331.028L318.15 319.106L338.797 331.028Z" stroke="#217426"/>
<path d="M338.797 331.028V354.869L318.15 366.79L297.502 354.869V331.028L318.15 319.106L338.797 331.028Z" stroke="#217426"/>
<path d="M318.263 367.027V390.867L297.615 402.788L276.968 390.867V367.027L297.615 355.105L318.263 367.027Z" stroke="#217426"/>
<path d="M359.839 367.027V390.867L339.191 402.788L318.544 390.867V367.027L339.191 355.105L359.839 367.027Z" stroke="#217426"/>
<path d="M338.797 402.772V426.613L318.15 438.534L297.502 426.613V402.772L318.15 390.85L338.797 402.772Z" stroke="#217426"/>
<path d="M380.373 402.772V426.613L359.726 438.534L339.078 426.613V402.772L359.726 390.85L380.373 402.772Z" stroke="#217426"/>
<path d="M276.179 367.027V390.867L255.532 402.788L234.885 390.867V367.027L255.532 355.105L276.179 367.027Z" stroke="#217426"/>
<path d="M276.179 367.027V390.867L255.532 402.788L234.885 390.867V367.027L255.532 355.105L276.179 367.027Z" stroke="#217426"/>
<path d="M255.645 403.026V426.866L234.997 438.787L214.35 426.866V403.026L234.997 391.104L255.645 403.026Z" stroke="#217426"/>
<path d="M297.221 403.026V426.866L276.574 438.787L255.926 426.866V403.026L276.574 391.104L297.221 403.026Z" stroke="#217426"/>
<path d="M400.908 295.282V319.123L380.26 331.044L359.613 319.123V295.282L380.26 283.361L400.908 295.282Z" stroke="#217426"/>
<path d="M400.908 295.282V319.123L380.26 331.044L359.613 319.123V295.282L380.26 283.361L400.908 295.282Z" stroke="#217426"/>
<path d="M380.373 331.281V355.122L359.726 367.043L339.078 355.122V331.281L359.726 319.359L380.373 331.281Z" stroke="#217426"/>
<path d="M421.949 331.281V355.122L401.302 367.043L380.654 355.122V331.281L401.302 319.359L421.949 331.281Z" stroke="#217426"/>
<path d="M400.908 367.027V390.867L380.26 402.788L359.613 390.867V367.027L380.26 355.105L400.908 367.027Z" stroke="#217426"/>
<path d="M442.484 367.027V390.867L421.836 402.788L401.189 390.867V367.027L421.836 355.105L442.484 367.027Z" stroke="#217426"/>
<path d="M421.949 403.026V426.866L401.302 438.787L380.654 426.866V403.026L401.302 391.104L421.949 403.026Z" stroke="#217426"/>
<path d="M463.526 403.026V426.866L442.878 438.787L422.231 426.866V403.026L442.878 391.104L463.526 403.026Z" stroke="#217426"/>
<path d="M796.642 259.538V283.378L775.995 295.299L755.348 283.378V259.538L775.995 247.616L796.642 259.538Z" stroke="#217426"/>
<path d="M796.642 259.538V283.378L775.995 295.299L755.348 283.378V259.538L775.995 247.616L796.642 259.538Z" stroke="#217426"/>
<path d="M776.108 295.536V319.377L755.46 331.298L734.813 319.377V295.536L755.46 283.615L776.108 295.536Z" stroke="#217426"/>
<path d="M796.642 331.282V355.123L775.995 367.043L755.348 355.123V331.282L775.995 319.36L796.642 331.282Z" stroke="#217426"/>
<path d="M734.025 295.536V319.377L713.377 331.298L692.73 319.377V295.536L713.377 283.615L734.025 295.536Z" stroke="#217426"/>
<path d="M734.025 295.536V319.377L713.377 331.298L692.73 319.377V295.536L713.377 283.615L734.025 295.536Z" stroke="#217426"/>
<path d="M713.49 331.535V355.376L692.843 367.297L672.195 355.376V331.535L692.843 319.613L713.49 331.535Z" stroke="#217426"/>
<path d="M755.066 331.535V355.376L734.419 367.297L713.771 355.376V331.535L734.419 319.613L755.066 331.535Z" stroke="#217426"/>
<path d="M734.025 367.281V391.121L713.377 403.042L692.73 391.121V367.281L713.377 355.359L734.025 367.281Z" stroke="#217426"/>
<path d="M775.601 367.281V391.121L754.953 403.042L734.306 391.121V367.281L754.953 355.359L775.601 367.281Z" stroke="#217426"/>
<path d="M755.066 403.279V427.12L734.419 439.041L713.771 427.12V403.279L734.419 391.358L755.066 403.279Z" stroke="#217426"/>
<path d="M796.642 403.279V427.12L775.995 439.041L755.348 427.12V403.279L775.995 391.358L796.642 403.279Z" stroke="#217426"/>
<path d="M775.601 439.025V462.866L754.953 474.786L734.306 462.866V439.025L754.953 427.103L775.601 439.025Z" stroke="#217426"/>
<path d="M712.983 116.049V139.89L692.335 151.811L671.688 139.89V116.049L692.335 104.127L712.983 116.049Z" stroke="#217426"/>
<path d="M712.983 116.049V139.89L692.335 151.811L671.688 139.89V116.049L692.335 104.127L712.983 116.049Z" stroke="#217426"/>
<path d="M692.448 152.048V175.889L671.801 187.81L651.153 175.889V152.048L671.801 140.126L692.448 152.048Z" stroke="#217426"/>
<path d="M734.024 152.048V175.889L713.377 187.81L692.729 175.889V152.048L713.377 140.126L734.024 152.048Z" stroke="#217426"/>
<path d="M712.983 187.793V211.634L692.335 223.555L671.688 211.634V187.793L692.335 175.871L712.983 187.793Z" stroke="#217426"/>
<path d="M754.559 187.793V211.634L733.911 223.555L713.264 211.634V187.793L733.911 175.871L754.559 187.793Z" stroke="#217426"/>
<path d="M734.024 223.792V247.633L713.377 259.554L692.729 247.633V223.792L713.377 211.87L734.024 223.792Z" stroke="#217426"/>
<path d="M775.6 223.792V247.633L754.953 259.554L734.305 247.633V223.792L754.953 211.87L775.6 223.792Z" stroke="#217426"/>
<path d="M754.559 259.538V283.378L733.911 295.299L713.264 283.378V259.538L733.911 247.616L754.559 259.538Z" stroke="#217426"/>
<path d="M650.365 152.048V175.889L629.718 187.81L609.07 175.889V152.048L629.718 140.126L650.365 152.048Z" stroke="#217426"/>
<path d="M650.365 152.048V175.889L629.718 187.81L609.07 175.889V152.048L629.718 140.126L650.365 152.048Z" stroke="#217426"/>
<path d="M629.83 188.047V211.888L609.183 223.809L588.536 211.888V188.047L609.183 176.125L629.83 188.047Z" stroke="#217426"/>
<path d="M671.407 188.047V211.888L650.759 223.809L630.112 211.888V188.047L650.759 176.125L671.407 188.047Z" stroke="#217426"/>
<path d="M650.365 223.792V247.633L629.718 259.554L609.07 247.633V223.792L629.718 211.87L650.365 223.792Z" stroke="#217426"/>
<path d="M691.941 223.792V247.633L671.294 259.554L650.646 247.633V223.792L671.294 211.87L691.941 223.792Z" stroke="#217426"/>
<path d="M671.407 259.791V283.632L650.759 295.553L630.112 283.632V259.791L650.759 247.869L671.407 259.791Z" stroke="#217426"/>
<path d="M712.983 259.791V283.632L692.335 295.553L671.688 283.632V259.791L692.335 247.869L712.983 259.791Z" stroke="#217426"/>
<path d="M691.941 295.536V319.377L671.294 331.298L650.646 319.377V295.536L671.294 283.615L691.941 295.536Z" stroke="#217426"/>
<path d="M754.559 116.303V140.143L733.911 152.064L713.264 140.143V116.303L733.911 104.381L754.559 116.303Z" stroke="#217426"/>
<path d="M796.135 116.303V140.143L775.487 152.064L754.84 140.143V116.303L775.487 104.381L796.135 116.303Z" stroke="#217426"/>
<path d="M775.093 152.048V175.889L754.446 187.81L733.798 175.889V152.048L754.446 140.126L775.093 152.048Z" stroke="#217426"/>
<path d="M796.135 188.047V211.888L775.487 223.809L754.84 211.888V188.047L775.487 176.125L796.135 188.047Z" stroke="#217426"/>
<path d="M796.389 475.024V498.864L775.741 510.785L755.094 498.864V475.024L775.741 463.102L796.389 475.024Z" stroke="#217426"/>
<circle cx="377.452" cy="233.82" r="384.963" stroke="#217426" stroke-width="2"/>
<circle cx="377.452" cy="233.82" r="283.087" stroke="#217426" stroke-width="2"/>
<path d="M253.033 218.141L247.127 224.141C246.69 224.594 246.096 224.82 245.346 224.82H236.908C236.127 224.82 235.549 224.609 235.174 224.188L228.307 217.18C227.838 216.664 227.604 216.109 227.604 215.516V201.055C227.604 200.461 227.822 199.922 228.26 199.438L235.033 192.43C235.424 191.977 236.018 191.75 236.815 191.75H245.791C246.572 191.75 247.143 191.961 247.502 192.383L252.447 197.375L248.416 201.406L244.69 197.609C244.58 197.547 244.447 197.516 244.291 197.516H238.783C238.58 197.516 238.432 197.563 238.338 197.656L233.979 202.063C233.916 202.156 233.885 202.273 233.885 202.414V214.016C233.885 214.172 233.932 214.305 234.026 214.414L238.432 218.961C238.541 219.023 238.674 219.055 238.83 219.055H243.471C243.674 219.055 243.822 219.008 243.916 218.914L248.627 214.063L253.033 218.141ZM287.041 215.75C287.041 216.453 286.822 217 286.385 217.391L279.799 224.141C279.518 224.438 279.252 224.625 279.002 224.703C278.752 224.781 278.424 224.82 278.018 224.82H267.424C266.69 224.82 266.111 224.609 265.69 224.188L258.869 217.18C258.651 216.945 258.494 216.75 258.401 216.594C258.322 216.438 258.26 216.258 258.213 216.055C258.182 215.852 258.166 215.672 258.166 215.516V201.055C258.166 200.336 258.385 199.797 258.822 199.438L265.596 192.43C266.018 191.977 266.643 191.75 267.471 191.75H278.018C278.768 191.75 279.346 191.961 279.752 192.383L286.338 199.18C286.807 199.711 287.041 200.273 287.041 200.867V215.75ZM280.76 213.875V202.555C280.76 202.383 280.713 202.25 280.619 202.156L276.166 197.609C276.057 197.547 275.924 197.516 275.768 197.516H269.299C269.096 197.516 268.947 197.563 268.854 197.656L264.541 202.109C264.479 202.203 264.447 202.32 264.447 202.461V213.875C264.447 214.156 264.494 214.352 264.588 214.461L268.901 218.961C268.994 219.023 269.127 219.055 269.299 219.055H275.768C275.955 219.055 276.104 219.008 276.213 218.914L280.526 214.461C280.682 214.32 280.76 214.125 280.76 213.875ZM321.752 224.82H316.291L301.361 202.648V224.82H295.057V191.75H300.963L315.846 213.828V191.75H321.752V224.82ZM352.619 197.516H343.127V224.82H336.846V197.516H327.236V191.75H352.619V197.516ZM381.213 224.82H374.908V213.547C374.908 213.094 374.783 212.742 374.533 212.492L373.713 211.625C373.432 211.328 373.065 211.18 372.611 211.18H364.408V224.82H358.104V191.75H375.213C375.791 191.75 376.221 191.891 376.502 192.172L380.815 196.461C381.08 196.727 381.213 197.078 381.213 197.516V205.859C381.213 206.313 381.08 206.664 380.815 206.914L378.705 208.977L380.815 211.18C381.08 211.445 381.213 211.797 381.213 212.234V224.82ZM374.908 203.938V199.18C374.908 198.805 374.783 198.484 374.533 198.219L374.088 197.844C373.869 197.625 373.604 197.516 373.291 197.516H364.408V205.859H372.986C373.44 205.859 373.807 205.719 374.088 205.438L374.533 204.992C374.783 204.742 374.908 204.391 374.908 203.938ZM417.729 215.75C417.729 216.453 417.51 217 417.072 217.391L410.486 224.141C410.205 224.438 409.94 224.625 409.69 224.703C409.44 224.781 409.111 224.82 408.705 224.82H398.111C397.377 224.82 396.799 224.609 396.377 224.188L389.557 217.18C389.338 216.945 389.182 216.75 389.088 216.594C389.01 216.438 388.947 216.258 388.901 216.055C388.869 215.852 388.854 215.672 388.854 215.516V201.055C388.854 200.336 389.072 199.797 389.51 199.438L396.283 192.43C396.705 191.977 397.33 191.75 398.158 191.75H408.705C409.455 191.75 410.033 191.961 410.44 192.383L417.026 199.18C417.494 199.711 417.729 200.273 417.729 200.867V215.75ZM411.447 213.875V202.555C411.447 202.383 411.401 202.25 411.307 202.156L406.854 197.609C406.744 197.547 406.611 197.516 406.455 197.516H399.986C399.783 197.516 399.635 197.563 399.541 197.656L395.229 202.109C395.166 202.203 395.135 202.32 395.135 202.461V213.875C395.135 214.156 395.182 214.352 395.276 214.461L399.588 218.961C399.682 219.023 399.815 219.055 399.986 219.055H406.455C406.643 219.055 406.791 219.008 406.901 218.914L411.213 214.461C411.369 214.32 411.447 214.125 411.447 213.875ZM446.205 224.82H425.744V191.75H432.049V219.055H446.205V224.82ZM473.065 224.82H452.604V191.75H458.908V219.055H473.065V224.82ZM498.963 224.82H479.463V191.75H498.822V197.516H485.768V205.18H498.283V210.945H485.768V219.055H498.963V224.82ZM529.338 224.82H523.033V213.547C523.033 213.094 522.908 212.742 522.658 212.492L521.838 211.625C521.557 211.328 521.19 211.18 520.736 211.18H512.533V224.82H506.229V191.75H523.338C523.916 191.75 524.346 191.891 524.627 192.172L528.94 196.461C529.205 196.727 529.338 197.078 529.338 197.516V205.859C529.338 206.313 529.205 206.664 528.94 206.914L526.83 208.977L528.94 211.18C529.205 211.445 529.338 211.797 529.338 212.234V224.82ZM523.033 203.938V199.18C523.033 198.805 522.908 198.484 522.658 198.219L522.213 197.844C521.994 197.625 521.729 197.516 521.416 197.516H512.533V205.859H521.111C521.565 205.859 521.932 205.719 522.213 205.438L522.658 204.992C522.908 204.742 523.033 204.391 523.033 203.938ZM226.807 270.75C226.807 271.344 226.565 271.906 226.08 272.438L219.471 279.188C219.096 279.609 218.518 279.82 217.736 279.82H200.252V246.75H217.736C218.518 246.75 219.111 246.977 219.518 247.43L226.127 254.18C226.58 254.68 226.807 255.227 226.807 255.82V270.75ZM220.526 269.016V257.508C220.526 257.367 220.494 257.25 220.432 257.156L215.955 252.656C215.861 252.563 215.721 252.516 215.533 252.516H206.557V274.055H215.533C215.658 274.055 215.768 274.023 215.861 273.961L220.338 269.414C220.463 269.273 220.526 269.141 220.526 269.016ZM248.979 279.82H232.315V274.055H237.494V252.516H232.315V246.75H248.979V252.516H243.776V274.055H248.979V279.82ZM275.791 272.672C275.791 273.313 275.565 273.852 275.111 274.289L269.932 279.141C269.447 279.594 268.854 279.82 268.151 279.82H259.033C258.346 279.82 257.768 279.609 257.299 279.188L252.119 274.148L256.197 270.164L260.182 273.961C260.276 274.023 260.408 274.055 260.58 274.055H266.674C266.861 274.055 267.002 274.008 267.096 273.914L269.416 271.758C269.479 271.695 269.51 271.531 269.51 271.266V269.555C269.51 269.367 269.44 269.234 269.299 269.156L253.619 259.477C253.322 259.273 253.104 258.969 252.963 258.563C252.822 258.156 252.752 257.852 252.752 257.648V253.898C252.752 253.258 252.979 252.711 253.432 252.258L258.611 247.43C259.096 246.977 259.69 246.75 260.393 246.75H268.455C269.19 246.75 269.76 246.961 270.166 247.383L275.346 252.422L271.268 256.406L267.283 252.609C267.19 252.547 267.065 252.516 266.908 252.516H261.822C261.713 252.516 261.588 252.563 261.447 252.656L258.94 254.953C258.846 255.047 258.799 255.18 258.799 255.352C258.799 255.555 258.846 255.68 258.94 255.727L274.971 265.805C275.518 266.133 275.791 266.727 275.791 267.586V272.672ZM306.729 273.141L300.822 279.141C300.385 279.594 299.791 279.82 299.041 279.82H290.604C289.822 279.82 289.244 279.609 288.869 279.188L282.002 272.18C281.533 271.664 281.299 271.109 281.299 270.516V256.055C281.299 255.461 281.518 254.922 281.955 254.438L288.729 247.43C289.119 246.977 289.713 246.75 290.51 246.75H299.486C300.268 246.75 300.838 246.961 301.197 247.383L306.143 252.375L302.111 256.406L298.385 252.609C298.276 252.547 298.143 252.516 297.986 252.516H292.479C292.276 252.516 292.127 252.563 292.033 252.656L287.674 257.063C287.611 257.156 287.58 257.273 287.58 257.414V269.016C287.58 269.172 287.627 269.305 287.721 269.414L292.127 273.961C292.236 274.023 292.369 274.055 292.526 274.055H297.166C297.369 274.055 297.518 274.008 297.611 273.914L302.322 269.063L306.729 273.141ZM340.736 270.75C340.736 271.453 340.518 272 340.08 272.391L333.494 279.141C333.213 279.438 332.947 279.625 332.697 279.703C332.447 279.781 332.119 279.82 331.713 279.82H321.119C320.385 279.82 319.807 279.609 319.385 279.188L312.565 272.18C312.346 271.945 312.19 271.75 312.096 271.594C312.018 271.438 311.955 271.258 311.908 271.055C311.877 270.852 311.861 270.672 311.861 270.516V256.055C311.861 255.336 312.08 254.797 312.518 254.438L319.291 247.43C319.713 246.977 320.338 246.75 321.166 246.75H331.713C332.463 246.75 333.041 246.961 333.447 247.383L340.033 254.18C340.502 254.711 340.736 255.273 340.736 255.867V270.75ZM334.455 268.875V257.555C334.455 257.383 334.408 257.25 334.315 257.156L329.861 252.609C329.752 252.547 329.619 252.516 329.463 252.516H322.994C322.791 252.516 322.643 252.563 322.549 252.656L318.236 257.109C318.174 257.203 318.143 257.32 318.143 257.461V268.875C318.143 269.156 318.19 269.352 318.283 269.461L322.596 273.961C322.69 274.023 322.822 274.055 322.994 274.055H329.463C329.651 274.055 329.799 274.008 329.908 273.914L334.221 269.461C334.377 269.32 334.455 269.125 334.455 268.875ZM375.447 279.82H369.986L355.057 257.648V279.82H348.752V246.75H354.658L369.541 268.828V246.75H375.447V279.82ZM411.072 279.82H405.611L390.682 257.648V279.82H384.377V246.75H390.283L405.166 268.828V246.75H411.072V279.82ZM439.502 279.82H420.002V246.75H439.361V252.516H426.307V260.18H438.822V265.945H426.307V274.055H439.502V279.82ZM471.307 273.141L465.401 279.141C464.963 279.594 464.369 279.82 463.619 279.82H455.182C454.401 279.82 453.822 279.609 453.447 279.188L446.58 272.18C446.111 271.664 445.877 271.109 445.877 270.516V256.055C445.877 255.461 446.096 254.922 446.533 254.438L453.307 247.43C453.697 246.977 454.291 246.75 455.088 246.75H464.065C464.846 246.75 465.416 246.961 465.776 247.383L470.721 252.375L466.69 256.406L462.963 252.609C462.854 252.547 462.721 252.516 462.565 252.516H457.057C456.854 252.516 456.705 252.563 456.611 252.656L452.252 257.063C452.19 257.156 452.158 257.273 452.158 257.414V269.016C452.158 269.172 452.205 269.305 452.299 269.414L456.705 273.961C456.815 274.023 456.947 274.055 457.104 274.055H461.744C461.947 274.055 462.096 274.008 462.19 273.914L466.901 269.063L471.307 273.141ZM499.268 252.516H489.776V279.82H483.494V252.516H473.885V246.75H499.268V252.516ZM524.252 279.82H504.752V246.75H524.111V252.516H511.057V260.18H523.572V265.945H511.057V274.055H524.252V279.82ZM558.072 270.75C558.072 271.344 557.83 271.906 557.346 272.438L550.736 279.188C550.361 279.609 549.783 279.82 549.002 279.82H531.518V246.75H549.002C549.783 246.75 550.377 246.977 550.783 247.43L557.393 254.18C557.846 254.68 558.072 255.227 558.072 255.82V270.75ZM551.791 269.016V257.508C551.791 257.367 551.76 257.25 551.697 257.156L547.221 252.656C547.127 252.563 546.986 252.516 546.799 252.516H537.822V274.055H546.799C546.924 274.055 547.033 274.023 547.127 273.961L551.604 269.414C551.729 269.273 551.791 269.141 551.791 269.016Z" fill="white"/>
</g>
</svg>
