<svg width="86" height="86" viewBox="0 0 86 86" fill="none" xmlns="http://www.w3.org/2000/svg">
<path d="M42.9238 4C64.4206 4.00016 81.8467 21.4271 81.8467 42.9238C81.8465 64.4205 64.4205 81.8465 42.9238 81.8467C21.4271 81.8467 4.00016 64.4206 4 42.9238C4 21.427 21.427 4 42.9238 4Z" fill="#2B2B2B"/>
<path d="M42.9238 4C64.4206 4.00016 81.8467 21.4271 81.8467 42.9238C81.8465 64.4205 64.4205 81.8465 42.9238 81.8467C21.4271 81.8467 4.00016 64.4206 4 42.9238C4 21.427 21.427 4 42.9238 4Z" fill="url(#paint0_radial_10_193)" fill-opacity="0.38"/>
<path d="M42.9238 4C64.4206 4.00016 81.8467 21.4271 81.8467 42.9238C81.8465 64.4205 64.4205 81.8465 42.9238 81.8467C21.4271 81.8467 4.00016 64.4206 4 42.9238C4 21.427 21.427 4 42.9238 4Z" stroke="#111111" stroke-width="8"/>
<g filter="url(#filter0_d_10_193)">
<circle cx="42.9235" cy="14.2188" r="1.57426" fill="#3F3F3F"/>
<circle cx="71.6282" cy="42.9235" r="1.57426" fill="#3F3F3F"/>
<circle cx="42.9235" cy="71.6282" r="1.57426" fill="#3F3F3F"/>
<circle cx="14.2188" cy="42.9235" r="1.57426" fill="#3F3F3F"/>
</g>
<defs>
<filter id="filter0_d_10_193" x="11.7446" y="11.7446" width="62.358" height="62.358" filterUnits="userSpaceOnUse" color-interpolation-filters="sRGB">
<feFlood flood-opacity="0" result="BackgroundImageFix"/>
<feColorMatrix in="SourceAlpha" type="matrix" values="0 0 0 0 0 0 0 0 0 0 0 0 0 0 0 0 0 0 127 0" result="hardAlpha"/>
<feOffset/>
<feGaussianBlur stdDeviation="0.45"/>
<feComposite in2="hardAlpha" operator="out"/>
<feColorMatrix type="matrix" values="0 0 0 0 0 0 0 0 0 0 0 0 0 0 0 0 0 0 0.54 0"/>
<feBlend mode="normal" in2="BackgroundImageFix" result="effect1_dropShadow_10_193"/>
<feBlend mode="normal" in="SourceGraphic" in2="effect1_dropShadow_10_193" result="shape"/>
</filter>
<radialGradient id="paint0_radial_10_193" cx="0" cy="0" r="1" gradientUnits="userSpaceOnUse" gradientTransform="translate(42.9235 42.9235) rotate(90) scale(42.9235)">
<stop/>
<stop offset="0.788462" stop-opacity="0"/>
</radialGradient>
</defs>
</svg>
